<svg width="128" height="128" viewBox="0 0 128 128" fill="none" xmlns="http://www.w3.org/2000/svg">
<path d="M0 20C0 8.95431 8.95431 0 20 0H108C119.046 0 128 8.95431 128 20V108C128 119.046 119.046 128 108 128H20C8.95431 128 0 119.046 0 108V20Z" fill="#1157FF"/>
<path d="M50.6149 44C52.4622 44 54.1673 44.1421 55.7304 44.5684C57.2935 44.8526 58.5724 45.421 59.7092 46.1315C60.846 46.842 61.6986 47.8367 62.2669 49.1155C62.8353 50.3944 63.1195 51.9575 63.1195 53.6627C63.1195 55.6521 62.6932 57.3572 61.6986 58.6361C60.846 59.915 59.425 61.0518 57.7198 61.9044C60.1355 62.6149 61.9827 63.8938 63.1195 65.5989C64.2563 67.3041 64.9668 69.4356 64.9668 71.8513C64.9668 73.8407 64.5405 75.5458 63.83 76.9668C63.1195 78.3878 61.9828 79.6667 60.7039 80.5193C59.425 81.3719 57.8619 82.0824 56.1567 82.5087C54.4515 82.9349 52.7464 83.2191 51.0412 83.2191H32V44H50.6149ZM49.4781 59.915C51.0412 59.915 52.3201 59.4887 53.3148 58.7782C54.3094 58.0677 54.7357 56.7889 54.7357 55.2258C54.7357 54.3732 54.5936 53.5206 54.3094 52.9522C54.0252 52.3838 53.5989 51.9575 53.0306 51.5312C52.4622 51.247 51.8938 50.9628 51.1833 50.8207C50.4728 50.6786 49.7623 50.6786 48.9097 50.6786H40.668V59.915H49.4781ZM49.9044 76.6826C50.757 76.6826 51.6096 76.5405 52.3201 76.3984C53.0306 76.2563 53.741 75.9721 54.3094 75.5458C54.8778 75.1195 55.3041 74.6932 55.7304 73.9828C56.0146 73.2723 56.2988 72.4197 56.2988 71.425C56.2988 69.4356 55.7304 68.0146 54.5936 67.0199C53.4568 66.1673 51.8938 65.741 50.0465 65.741H40.668V76.6826H49.9044ZM77.3294 76.5405C78.4662 77.6773 80.1713 78.2457 82.4449 78.2457C84.008 78.2457 85.429 77.8194 86.5658 77.1089C87.7026 76.2563 88.413 75.4037 88.6972 74.5511H95.6601C94.5233 77.9615 92.8181 80.3772 90.5445 81.9403C88.2709 83.3612 85.5711 84.2138 82.3028 84.2138C80.0292 84.2138 78.0399 83.7875 76.1926 83.077C74.3453 82.3666 72.9243 81.3719 71.6454 79.9509C70.3666 78.672 69.3719 77.1089 68.8035 75.2616C68.093 73.4144 67.8088 71.425 67.8088 69.1514C67.8088 67.0199 68.093 65.0306 68.8035 63.1833C69.514 61.336 70.5087 59.7729 71.7875 58.3519C73.0664 57.073 74.6295 55.9363 76.3347 55.2258C78.182 54.5153 80.0292 54.089 82.3028 54.089C84.7185 54.089 86.85 54.5153 88.6972 55.51C90.5445 56.5047 91.9655 57.6414 93.1023 59.3466C94.2391 60.9097 95.0917 62.757 95.6601 64.7464C95.9443 66.7357 96.0864 68.7251 95.9443 70.9987H75.34C75.34 73.2723 76.1926 75.4037 77.3294 76.5405ZM86.2816 61.6202C85.2869 60.6255 83.7238 60.0571 81.8765 60.0571C80.5976 60.0571 79.6029 60.3413 78.7504 60.7676C77.8978 61.1939 77.3294 61.7623 76.761 62.3307C76.1926 62.8991 75.9084 63.6096 75.7663 64.3201C75.6242 65.0306 75.4821 65.5989 75.4821 66.1673H88.2709C87.9867 64.0359 87.2763 62.6149 86.2816 61.6202ZM73.7769 46.6999H89.6919V50.5365H73.7769V46.6999Z" fill="white"/>
</svg>
