<svg width="128" height="128" viewBox="0 0 128 128" fill="none" xmlns="http://www.w3.org/2000/svg">
<rect width="128" height="128" rx="20" fill="white"/>
<path d="M22.8873 24.0002C22.0452 23.9894 21.2414 24.3514 20.6915 24.9893C20.1416 25.6272 19.902 26.4755 20.0368 27.3068L32.1372 100.764C32.4484 102.62 34.047 103.984 35.9284 104H93.979C95.3911 104.018 96.6036 102.999 96.8295 101.605L108.93 27.3211C109.065 26.4898 108.825 25.6414 108.275 25.0036C107.725 24.3657 106.921 24.0036 106.079 24.0145L22.8873 24.0002ZM73.8401 77.091H55.3118L50.2949 50.8805H78.3297L73.8401 77.091Z" fill="#2684FF"/>
<path d="M105.009 50.8435H78.2781L73.7922 77.033H55.2787L33.4185 102.98C34.1113 103.58 34.9947 103.913 35.9107 103.92H93.9292C95.3402 103.939 96.5518 102.921 96.7774 101.528L105.009 50.8435Z" fill="url(#paint0_linear_1721_314)"/>
<defs>
<linearGradient id="paint0_linear_1721_314" x1="7810.52" y1="784.264" x2="4722.68" y2="5168.6" gradientUnits="userSpaceOnUse">
<stop offset="0.18" stop-color="#0052CC"/>
<stop offset="1" stop-color="#2684FF"/>
</linearGradient>
</defs>
</svg>
