<svg width="128" height="128" viewBox="0 0 128 128" fill="none" xmlns="http://www.w3.org/2000/svg">
<path d="M0 64V108C0 119.046 8.95431 128 20 128H64H108C119.046 128 128 119.046 128 108V64V20C128 8.9543 119.046 -1.90735e-06 108 -1.90735e-06H64H20C8.95431 -1.90735e-06 0 8.9543 0 20V64ZM54.5 63.75V70.75C54.5 71.7165 53.7165 72.5 52.75 72.5V72.5V72.5C51.7835 72.5 51 71.7165 51 70.75V63.75V56.75C51 55.7835 51.7835 55 52.75 55V55V55C53.7165 55 54.5 55.7835 54.5 56.75V63.75ZM33.85 56.7L34.0896 56.9139C34.7196 57.4764 34.7472 58.4528 34.15 59.05V59.05C33.15 60.05 33.05 60.1 31.95 59.3C29.2 57.4 24.85 59.3 24.2 62.75C23.8 64.85 24.75 67.75 26.15 68.75C27.4 69.6 30.6 69.75 32.05 68.95C32.85 68.55 33.35 68.6 34.35 69.25C35.55 70.05 35.55 70.1 34.7 71.05C33.45 72.45 30.5 73.2 27.8 72.8C21.9 71.9 18.65 65.05 21.65 59.75C23.35 56.7 25.55 55.5 29.3 55.5C31.9 55.5 32.7 55.7 33.85 56.7ZM43.75 60.2C44.7 60.6 45.5 60.75 45.5 60.45C45.5 60.2 46.3 60 47.25 60V60C48.2165 60 49 60.7835 49 61.75V66.25V70.75C49 71.7165 48.2165 72.5 47.25 72.5V72.5C46.3 72.5 45.5 72.25 45.5 71.95C45.5 71.7 45 71.8 44.4 72.2C40.95 74.6 35.5 71.05 35.5 66.4C35.5 64.2 37.45 61.15 39.4 60.3C41.75 59.35 41.7 59.35 43.75 60.2ZM69.2 60.2C71.45 61.15 71.85 61.9 70.65 63.05C69.75 63.95 69.55 63.95 68.3 63.3C64.45 61.3 61.65 66.95 65.3 69.3C66.45 70.1 66.7 70.1 68.25 69.35C69.85 68.6 69.95 68.6 71 69.75V69.75C71.5754 70.3516 71.472 71.3261 70.7832 71.7936L70.7 71.85C69.8 72.45 68.35 72.75 66.7 72.75C64.5 72.75 63.85 72.5 62.55 71.3C61.75 70.55 60.8 69.25 60.5 68.45C59.2 65.4 61.45 61 64.65 60.05C66.9 59.4 67.35 59.4 69.2 60.2ZM81.85 60.45C84.6 61.7 85.7 63.8 85.35 67.2C85.2 69.2 84.8 69.95 83.6 71.05C80.65 73.7 76.95 73.55 74.15 70.75C72.7 69.3 72.5 68.8 72.5 66.3C72.5 63.8 72.65 63.35 74.25 61.8C75.8 60.25 76.85 59.75 79 59.6C79.4 59.55 80.7 59.95 81.85 60.45ZM97.55 60.8C98.45 61.6 98.55 61.6 99.55 60.7C101.15 59.25 104.2 59.45 105.9 61.15C107.15 62.45 107.25 62.85 107.4 67.5L107.528 70.7014C107.567 71.6829 106.782 72.5 105.8 72.5V72.5V72.5C104.806 72.5 104 71.6941 104 70.7V68.3C104 63.7 103.35 62.3 101.35 62.6C99.75 62.8 99 64.85 99 68.85V71C99 71.8284 98.3284 72.5 97.5 72.5V72.5V72.5C96.6716 72.5 96 71.8284 96 71V68.55C96 65.45 95.8 64.35 95.05 63.45C94.25 62.45 93.9 62.35 92.7 62.75C91.3 63.25 91.25 63.35 91 67.75L90.8391 70.6455C90.7879 71.5677 90.0697 72.3138 89.15 72.4V72.4V72.4C88.264 72.4805 87.5 71.7829 87.5 70.8932V66.3V61.45C87.5 60.6492 88.1492 60 88.95 60V60C89.75 60 90.5 60.25 90.6 60.6C90.75 61 91.2 60.95 92.05 60.3C93.45 59.3 96.15 59.5 97.55 60.8ZM59.4 70.55C59.6 72.1 58.4 73.2 57 72.75C55.85 72.4 55.55 69.75 56.65 69.3C58.05 68.75 59.25 69.25 59.4 70.55Z" fill="black"/>
<path d="M41.15 63.05C38.9 63.85 38.3 67.05 40 68.9C42.1 71.15 45.5 69.55 45.5 66.35C45.5 63.9 43.3 62.25 41.15 63.05Z" fill="black"/>
<path d="M76.5502 63.65C76.2502 64.05 75.8502 65.05 75.7002 65.9C75.4502 67.15 75.6502 67.7 76.6502 68.7C78.1502 70.15 79.3002 70.35 80.8502 69.25C82.7502 67.95 82.7002 64.65 80.8002 63.4C79.9002 62.75 77.1502 62.95 76.5502 63.65Z" fill="black"/>
</svg>
