<svg width="128" height="128" viewBox="0 0 128 128" fill="none" xmlns="http://www.w3.org/2000/svg">
<rect width="128" height="128" rx="20" fill="white"/>
<g clip-path="url(#clip0_1721_323)">
<path d="M97.8455 70.2133C96.3468 69.1147 93.2962 67.7493 90.7202 66.8747C90.9868 65.1947 91.0828 63.088 90.6722 60.6507H90.6615V60.592H90.6722V60.6507C93.2642 60.1813 95.7175 59.1307 97.8455 57.5733C99.8882 56.0587 99.4935 54.352 99.1842 53.3387C96.6562 45.1413 91.2695 38.128 84.0108 33.5627C76.7522 29.0027 68.0908 27.1947 59.6108 28.4693C51.1308 29.7493 43.3922 34.0267 37.7975 40.528C32.2028 47.024 29.1255 55.3173 29.1255 63.8933C29.1255 72.4693 32.2028 80.7627 37.7975 87.2587C43.3922 93.76 51.1308 98.0373 59.6108 99.3173C68.0908 100.592 76.7522 98.784 84.0108 94.224C91.2695 89.6587 96.6562 82.6453 99.1842 74.448C99.4935 73.4347 99.8882 71.728 97.8455 70.2133ZM95.5415 73.3227C93.2855 80.6347 88.4802 86.8907 82.0055 90.96C75.5255 95.0293 67.8028 96.6347 60.2402 95.4933C52.6722 94.352 45.7708 90.5387 40.7788 84.736C35.7922 78.9387 33.0455 71.5413 33.0455 63.8933C33.0455 56.2453 35.7922 48.848 40.7788 43.0507C45.7708 37.248 52.6722 33.4347 60.2402 32.2933C67.8028 31.152 75.5255 32.7573 82.0055 36.8267C88.4802 40.896 93.2855 47.152 95.5415 54.464C95.5415 54.48 95.5522 54.5013 95.5628 54.5173C94.4588 55.3173 91.9042 56.2773 89.6215 56.9547L89.6002 56.912C89.2748 56.1067 88.8962 55.3173 88.4588 54.5653L84.8268 48.272C83.1895 45.44 80.8375 43.0827 78.0002 41.4453C75.1628 39.808 71.9468 38.944 68.6722 38.944H61.4028C58.1282 38.944 54.9122 39.808 52.0748 41.4453C49.2428 43.0827 46.8855 45.44 45.2482 48.272L41.6162 54.5653C39.9788 57.4027 39.1148 60.6187 39.1148 63.8933C39.1148 67.168 39.9788 70.384 41.6162 73.2213L45.2482 79.5147C46.8855 82.3467 49.2428 84.704 52.0748 86.3413C54.9122 87.9787 58.1282 88.8427 61.4028 88.8427H68.6722C71.9468 88.8427 75.1628 87.9787 78.0002 86.3413C80.8375 84.704 83.1895 82.3467 84.8268 79.5147L88.4588 73.232C88.8962 72.48 89.2748 71.6907 89.6002 70.8853L89.6215 70.8373C89.6215 70.8373 89.6215 70.832 89.6268 70.8267H89.6322C91.7762 71.1573 93.8082 71.9947 95.5628 73.2693C95.5628 73.2853 95.5522 73.3067 95.5415 73.3227Z" fill="#006BFF"/>
<path d="M89.6213 56.96C88.8053 57.0933 87.9786 57.168 87.1466 57.168C81.712 57.168 79.6746 55.36 77.3173 53.2693C75.04 51.248 72.208 48.7413 67.0506 48.7413H63.968C60.24 48.7413 56.848 50.096 54.4266 52.5493C52.0586 54.9493 50.752 58.2347 50.752 61.7973V66.0107C50.752 69.5733 52.0586 72.8587 54.4266 75.2587C56.8533 77.712 60.24 79.0667 63.968 79.0667H67.0506C72.208 79.0667 75.04 76.5547 77.3173 74.5387C79.6746 72.4587 81.7173 70.64 87.1466 70.64C87.9733 70.64 88.8053 70.704 89.6213 70.8373C90.0906 69.664 90.7786 66.6133 90.72 66.8747C89.4826 66.7627 88.32 66.816 87.136 66.816C74.6506 66.816 75.3013 75.248 67.0346 75.248H63.952C58.2773 75.248 54.5493 71.1947 54.5493 66.0053V61.7813C54.5493 56.5973 58.2773 52.544 63.952 52.544H67.0346C75.3013 52.544 74.6506 60.9707 87.136 60.9707C88.32 60.9707 89.4986 60.864 90.6613 60.6507V60.592C90.4373 59.3493 90.0906 58.128 89.6213 56.9547V56.96Z" fill="#0AE8F0"/>
</g>
<defs>
<clipPath id="clip0_1721_323">
<rect width="80" height="80" fill="white" transform="translate(24 24)"/>
</clipPath>
</defs>
</svg>
