<svg width="128" height="128" viewBox="0 0 128 128" fill="none" xmlns="http://www.w3.org/2000/svg">
<path d="M128 20C128 8.95431 119.046 0 108 0H20C8.95431 0 0 8.95431 0 20V108C0 119.046 8.95431 128 20 128H108C119.046 128 128 119.046 128 108V20Z" fill="#7289DA"/>
<path d="M58.208 62.848C56.384 62.848 54.944 64.448 54.944 66.4C54.944 68.352 56.416 69.952 58.208 69.952C60.032 69.952 61.472 68.352 61.472 66.4C61.504 64.448 60.032 62.848 58.208 62.848ZM69.888 62.848C68.064 62.848 66.624 64.448 66.624 66.4C66.624 68.352 68.096 69.952 69.888 69.952C71.712 69.952 73.152 68.352 73.152 66.4C73.152 64.448 71.712 62.848 69.888 62.848Z" fill="white"/>
<path d="M85.44 36H42.56C38.944 36 36 38.944 36 42.592V85.856C36 89.504 38.944 92.448 42.56 92.448H78.848L77.152 86.528L81.248 90.336L85.12 93.92L92 100V42.592C92 38.944 89.056 36 85.44 36ZM73.088 77.792C73.088 77.792 71.936 76.416 70.976 75.2C75.168 74.016 76.768 71.392 76.768 71.392C75.456 72.256 74.208 72.864 73.088 73.28C71.488 73.952 69.952 74.4 68.448 74.656C65.376 75.232 62.56 75.072 60.16 74.624C58.336 74.272 56.768 73.76 55.456 73.248C54.72 72.96 53.92 72.608 53.12 72.16C53.024 72.096 52.928 72.064 52.832 72C52.768 71.968 52.736 71.936 52.704 71.904C52.128 71.584 51.808 71.36 51.808 71.36C51.808 71.36 53.344 73.92 57.408 75.136C56.448 76.352 55.264 77.792 55.264 77.792C48.192 77.568 45.504 72.928 45.504 72.928C45.504 62.624 50.112 54.272 50.112 54.272C54.72 50.816 59.104 50.912 59.104 50.912L59.424 51.296C53.664 52.96 51.008 55.488 51.008 55.488C51.008 55.488 51.712 55.104 52.896 54.56C56.32 53.056 59.04 52.64 60.16 52.544C60.352 52.512 60.512 52.48 60.704 52.48C62.656 52.224 64.864 52.16 67.168 52.416C70.208 52.768 73.472 53.664 76.8 55.488C76.8 55.488 74.272 53.088 68.832 51.424L69.28 50.912C69.28 50.912 73.664 50.816 78.272 54.272C78.272 54.272 82.88 62.624 82.88 72.928C82.88 72.928 80.16 77.568 73.088 77.792Z" fill="white"/>
</svg>
