<svg width="128" height="128" viewBox="0 0 128 128" fill="none" xmlns="http://www.w3.org/2000/svg">
<path d="M108 0H20C8.95431 0 0 8.95431 0 20V108C0 119.046 8.95431 128 20 128H108C119.046 128 128 119.046 128 108V20C128 8.95431 119.046 0 108 0Z" fill="#EA4C89"/>
<path d="M64 32C46.336 32 32 46.336 32 64C32 81.664 46.336 96 64 96C81.6 96 96 81.664 96 64C96 46.336 81.6 32 64 32ZM85.12 46.72C88.96 51.392 91.2 57.28 91.328 63.744C90.432 63.552 81.408 61.76 72.32 62.848C72.128 62.4 71.936 61.888 71.744 61.44C71.168 60.096 70.592 58.752 69.952 57.472C79.936 53.44 84.544 47.488 85.12 46.72ZM64 36.736C70.912 36.736 77.312 39.36 82.112 43.584C81.6 44.288 77.504 49.792 67.776 53.44C63.296 45.184 58.304 38.464 57.6 37.44C59.648 36.992 61.76 36.736 64 36.736ZM52.352 39.296C53.056 40.256 57.92 47.04 62.464 55.104C49.664 58.496 38.4 58.432 37.184 58.432C39.04 49.92 44.736 42.88 52.352 39.296ZM36.672 64.064C36.672 63.808 36.672 63.488 36.672 63.232C37.824 63.296 51.136 63.424 64.768 59.328C65.536 60.864 66.304 62.4 67.008 64C66.688 64.128 66.304 64.192 65.92 64.32C51.84 68.864 44.352 81.28 43.712 82.304C39.296 77.44 36.672 71.04 36.672 64.064ZM64 91.328C57.664 91.328 51.84 89.152 47.232 85.568C47.744 84.544 53.248 73.856 68.672 68.48C68.736 68.416 68.8 68.416 68.864 68.416C72.704 78.4 74.304 86.72 74.688 89.152C71.424 90.56 67.776 91.328 64 91.328ZM79.232 86.656C78.976 84.992 77.504 76.992 73.92 67.2C82.496 65.856 89.984 68.096 90.944 68.352C89.728 75.968 85.376 82.56 79.232 86.656Z" fill="white"/>
</svg>
