<svg width="128" height="128" viewBox="0 0 128 128" fill="none" xmlns="http://www.w3.org/2000/svg">
<path d="M108 0H20C8.95431 0 0 8.95431 0 20V108C0 119.046 8.95431 128 20 128H108C119.046 128 128 119.046 128 108V20C128 8.95431 119.046 0 108 0Z" fill="#0061FF"/>
<path d="M64 47.0497L48 57.2354L64 67.421L48 77.6067L32 67.421L48 57.2354L32 47.0497L48 36.864L64 47.0497ZM47.9576 81.0019L63.9576 70.8163L79.9576 81.0019L63.9576 91.1876L47.9576 81.0019ZM64 67.421L80 57.2354L64 47.0497L80 36.864L96 47.0497L80 57.2354L96 67.421L80 77.6067L64 67.421Z" fill="white"/>
</svg>
