<svg width="128" height="128" viewBox="0 0 128 128" fill="none" xmlns="http://www.w3.org/2000/svg">
<path d="M128 20C128 8.95431 119.046 0 108 0H20C8.95431 0 0 8.95431 0 20V108C0 119.046 8.95431 128 20 128H108C119.046 128 128 119.046 128 108V20Z" fill="black"/>
<path d="M63.9335 64C63.9335 58.109 68.7091 53.3333 74.6001 53.3333C80.4911 53.3333 85.2668 58.109 85.2668 64C85.2668 69.8911 80.4911 74.6666 74.6001 74.6666C68.7091 74.6666 63.9335 69.8911 63.9335 64Z" fill="#1ABCFE"/>
<path d="M42.6001 85.3333C42.6001 79.4424 47.3757 74.6666 53.2668 74.6666H63.9334V85.3333C63.9334 91.2244 59.1579 96 53.2668 96C47.3757 96 42.6001 91.2244 42.6001 85.3333Z" fill="#0ACF83"/>
<path d="M63.9335 32V53.3333H74.6001C80.4912 53.3333 85.2668 48.5577 85.2668 42.6667C85.2668 36.7756 80.4912 32 74.6001 32H63.9335Z" fill="#FF7262"/>
<path d="M42.6001 42.6667C42.6001 48.5577 47.3757 53.3333 53.2668 53.3333H63.9334V32H53.2668C47.3757 32 42.6001 36.7756 42.6001 42.6667Z" fill="#F24E1E"/>
<path d="M42.6001 64C42.6001 69.8911 47.3757 74.6666 53.2668 74.6666H63.9334V53.3333H53.2668C47.3757 53.3333 42.6001 58.109 42.6001 64Z" fill="#A259FF"/>
</svg>
