<svg width="128" height="128" viewBox="0 0 128 128" fill="none" xmlns="http://www.w3.org/2000/svg">
<path d="M108 0H20C8.95431 0 0 8.95431 0 20V108C0 119.046 8.95431 128 20 128H108C119.046 128 128 119.046 128 108V20C128 8.95431 119.046 0 108 0Z" fill="#231E1B"/>
<path fill-rule="evenodd" clip-rule="evenodd" d="M63.9021 32.768C46.2875 32.768 32 47.0555 32 64.6701C32 78.7619 41.1988 90.7007 53.7248 95.0065C55.2905 95.2023 55.8777 94.2237 55.8777 93.4408C55.8777 92.6579 55.8777 90.7007 55.8777 87.9607C47.0703 89.9179 45.1131 83.6549 45.1131 83.6549C43.7431 79.9362 41.5902 78.9576 41.5902 78.9576C38.6544 77.0004 41.7859 77.0004 41.7859 77.0004C44.9174 77.1961 46.6789 80.3276 46.6789 80.3276C49.6147 85.2206 54.1162 83.8506 55.8777 83.0677C56.0734 80.9148 57.052 79.5448 57.8349 78.7619C50.789 77.979 43.3517 75.239 43.3517 62.9087C43.3517 59.3857 44.526 56.6457 46.6789 54.2971C46.4832 53.7099 45.3089 50.3827 47.0703 46.0769C47.0703 46.0769 49.8104 45.294 55.8777 49.4041C58.422 48.6212 61.1621 48.4255 63.9021 48.4255C66.6422 48.4255 69.3823 48.8169 71.9266 49.4041C77.9939 45.294 80.7339 46.0769 80.7339 46.0769C82.4954 50.3827 81.3211 53.7099 81.1254 54.4928C83.0826 56.6457 84.4526 59.5815 84.4526 63.1044C84.4526 75.4347 77.0153 77.979 69.9694 78.7619C71.1437 79.7405 72.1223 81.6977 72.1223 84.6334C72.1223 88.9393 72.1223 92.2665 72.1223 93.4408C72.1223 94.2237 72.7095 95.2023 74.2752 95.0065C86.9969 90.7007 96 78.7619 96 64.6701C95.8043 47.0555 81.5168 32.768 63.9021 32.768Z" fill="white"/>
</svg>
