<svg width="128" height="128" viewBox="0 0 128 128" fill="none" xmlns="http://www.w3.org/2000/svg">
<rect width="128" height="128" rx="20" fill="#FC6D26"/>
<path fill-rule="evenodd" clip-rule="evenodd" d="M95.8101 67.1484L92.4532 56.834C92.4353 56.739 92.4081 56.6461 92.372 56.5565L85.6374 35.8258C85.4579 35.2909 85.1142 34.8264 84.6551 34.4986C84.196 34.1707 83.6451 33.9962 83.081 34.0001C82.5183 33.9967 81.9695 34.1736 81.5149 34.5049C81.0603 34.8361 80.7238 35.3044 80.5547 35.8409L74.1354 55.5955H53.8748L47.4461 35.8409C47.2775 35.3062 46.9428 34.8393 46.4904 34.5082C46.038 34.1771 45.4917 33.9991 44.9312 34.0001H44.916C44.3515 34.0002 43.8012 34.1783 43.3435 34.5091C42.886 34.8399 42.5443 35.3066 42.3672 35.8428L35.6269 56.598C35.6269 56.6093 35.6215 56.6193 35.6159 56.6296L35.6061 56.6509L32.1888 67.1503C31.9377 67.9203 31.937 68.7501 32.1872 69.5205C32.4372 70.2908 32.9248 70.9622 33.5802 71.438L63.1055 92.8918C63.3653 93.0799 63.6783 93.1804 63.9991 93.1787C64.3199 93.177 64.6317 93.0732 64.8897 92.8824L94.4204 71.438C95.0762 70.962 95.564 70.2903 95.8136 69.5194C96.0634 68.7486 96.0622 67.9184 95.8101 67.1484ZM50.6973 55.5955L44.9029 37.7856L39.1292 55.5955H50.6973ZM88.8904 55.5955L83.1073 37.7856L77.3148 55.5955H88.8904ZM51.6772 58.6277L59.9071 83.9576L40.1507 58.6277H51.6772ZM68.1031 83.9633L75.9951 59.6793L76.335 58.6277H87.8709L69.9967 81.5258L68.1031 83.9633ZM54.8586 58.6163H73.1554L64.0004 86.7708L54.8586 58.6163ZM35.357 68.9949C35.2177 68.8936 35.1142 68.7507 35.0612 68.5869C35.0082 68.423 35.0087 68.2466 35.0624 68.0829L37.5999 60.2854L56.2104 84.1445L35.357 68.9949ZM71.7904 84.1388L92.6457 68.9949C92.7851 68.8932 92.8885 68.748 92.9411 68.5838C92.9937 68.4196 92.9927 68.2428 92.9384 68.0792L90.4008 60.2854L71.8603 84.0482L71.7904 84.1388Z" fill="white"/>
</svg>
