<svg width="128" height="128" viewBox="0 0 128 128" fill="none" xmlns="http://www.w3.org/2000/svg">
<g clip-path="url(#clip0_1720_162)">
<path d="M108.8 0H19.2C8.59613 0 0 8.59613 0 19.2V108.8C0 119.404 8.59613 128 19.2 128H108.8C119.404 128 128 119.404 128 108.8V19.2C128 8.59613 119.404 0 108.8 0Z" fill="#4285F4"/>
<path d="M53.25 27.75L26.5 51.25H43.75C45 62.5 54 67.25 63.25 68C61.5 72.5 62.25 74.75 65 77.75C54.25 78 39.25 84.25 39.25 94.5C40.25 105.75 55 108 62.25 108C71.75 108.25 82.5 103.25 84.75 94.5C85.75 85.75 82.25 81 77 76.75C71.25 72.25 70 69.75 71.75 66.75C75.5 62.5 80.5 60 81.5 54C82 49.75 81 47 80 43.25L91.25 33.75L91 37.75C90.25 38.25 89.75 39.25 89.75 40V65.75C90.25 69 95.25 68.5 95.5 65.75V40C95.5 39.25 95 38.25 94.25 38V31.75L98.25 27.75H53.25ZM67.75 63C52.5 65.5 46 41.25 58.25 38.25C72.25 35.5 79 59.75 67.75 63ZM66.5 81.25C81.5 84.5 81.75 97 69 100.75C58 103 48.5 99.75 48.75 93.25C48.75 87 57.5 81.25 66.5 81.25Z" fill="white"/>
</g>
<defs>
<clipPath id="clip0_1720_162">
<rect width="128" height="128" fill="white"/>
</clipPath>
</defs>
</svg>
