<svg width="128" height="128" viewBox="0 0 128 128" fill="none" xmlns="http://www.w3.org/2000/svg">
<path d="M128 20C128 8.95431 119.046 0 108 0H20C8.95431 0 0 8.95431 0 20V108C0 119.046 8.95431 128 20 128H108C119.046 128 128 119.046 128 108V20Z" fill="white"/>
<path fill-rule="evenodd" clip-rule="evenodd" d="M95.3197 64.7274C95.3197 62.4583 95.116 60.2764 94.7379 58.1819H64.5996V70.5601H81.8215C81.0796 74.5601 78.8251 77.9492 75.436 80.2183V88.2474H85.7778C91.8288 82.6765 95.3197 74.4728 95.3197 64.7274Z" fill="#4285F4"/>
<path fill-rule="evenodd" clip-rule="evenodd" d="M64.5984 95.9999C73.2384 95.9999 80.482 93.1344 85.7766 88.2471L75.4348 80.218C72.5693 82.138 68.9038 83.2726 64.5984 83.2726C56.2638 83.2726 49.2093 77.6435 46.6929 70.0798H36.002V78.3708C41.2674 88.829 52.0893 95.9999 64.5984 95.9999Z" fill="#34A853"/>
<path fill-rule="evenodd" clip-rule="evenodd" d="M46.6942 70.0799C46.0542 68.1599 45.6905 66.1089 45.6905 63.9998C45.6905 61.8908 46.0542 59.8398 46.6942 57.9198V49.6289H36.0033C33.836 53.9489 32.5996 58.8362 32.5996 63.9998C32.5996 69.1635 33.836 74.0508 36.0033 78.3708L46.6942 70.0799Z" fill="#FBBC05"/>
<path fill-rule="evenodd" clip-rule="evenodd" d="M64.5984 44.7273C69.2966 44.7273 73.5148 46.3418 76.8311 49.5128L86.0093 40.3346C80.4675 35.1709 73.2238 32 64.5984 32C52.0893 32 41.2674 39.1709 36.002 49.6291L46.6929 57.9201C49.2093 50.3564 56.2638 44.7273 64.5984 44.7273Z" fill="#EA4335"/>
</svg>
