<svg width="128" height="128" viewBox="0 0 128 128" fill="none" xmlns="http://www.w3.org/2000/svg">
<rect width="128" height="128" rx="20" fill="white"/>
<path fill-rule="evenodd" clip-rule="evenodd" d="M29.4973 50.729C22.1676 58.0587 22.1676 69.9413 29.4973 77.2704L50.7295 98.5032C58.0592 105.832 69.9418 105.832 77.2709 98.5032L98.5037 77.2704C105.833 69.9406 105.833 58.058 98.5037 50.729L77.2709 29.4968C69.9411 22.1677 58.0586 22.1677 50.7295 29.4968L29.4973 50.729ZM73.2893 73.2895C78.4201 68.1586 78.4201 59.8407 73.2893 54.7105C68.1591 49.5797 59.8412 49.5797 54.7111 54.7105C49.5802 59.8414 49.5802 68.1586 54.7111 73.2895C59.8419 78.4196 68.1591 78.4196 73.29 73.2895H73.2893Z" fill="#2962FF"/>
</svg>
