<svg width="128" height="128" viewBox="0 0 128 128" fill="none" xmlns="http://www.w3.org/2000/svg">
<g clip-path="url(#clip0_1720_228)">
<path d="M32.4575 127.547C24.8452 127.201 20.7101 125.934 17.9596 124.862C14.3152 123.443 11.7169 121.753 8.98172 119.022C6.2465 116.291 4.55363 113.692 3.14227 110.048C2.06949 107.298 0.802687 103.162 0.456504 95.5501C0.076084 87.3217 0 84.8527 0 64.0057C0 43.1587 0.0836924 40.6936 0.4527 32.4575C0.798882 24.8452 2.07329 20.7177 3.13847 17.9596C4.55743 14.3152 6.2503 11.7169 8.97792 8.97792C11.7093 6.2465 14.3076 4.54983 17.9558 3.13847C20.7063 2.06568 24.8414 0.798882 32.4536 0.4527C40.6859 0.076084 43.1587 0 63.9981 0C84.8451 0 87.3103 0.0836924 95.5464 0.4527C103.159 0.798882 107.286 2.07329 110.044 3.13847C113.689 4.54983 116.287 6.2465 119.022 8.97792C121.757 11.7093 123.443 14.3114 124.862 17.9558C125.934 20.7063 127.201 24.8414 127.547 32.4536C127.924 40.6897 128 43.1549 128 64.0019C128 84.8413 127.924 87.3141 127.547 95.5501C127.201 103.162 125.927 107.298 124.862 110.048C123.443 113.692 121.753 116.291 119.022 119.022C116.291 121.753 113.689 123.443 110.044 124.862C107.294 125.934 103.159 127.201 95.5464 127.547C87.3179 127.924 84.8451 128 63.9981 128C43.1587 128 40.6859 127.928 32.4575 127.547Z" fill="url(#paint0_radial_1720_228)"/>
<path d="M32.4575 127.547C24.8452 127.201 20.7101 125.934 17.9596 124.862C14.3152 123.443 11.7169 121.753 8.98172 119.022C6.2465 116.291 4.55363 113.692 3.14227 110.048C2.06949 107.298 0.802687 103.162 0.456504 95.5501C0.076084 87.3217 0 84.8527 0 64.0057C0 43.1587 0.0836924 40.6936 0.4527 32.4575C0.798882 24.8452 2.07329 20.7177 3.13847 17.9596C4.55743 14.3152 6.2503 11.7169 8.97792 8.97792C11.7093 6.2465 14.3076 4.54983 17.9558 3.13847C20.7063 2.06568 24.8414 0.798882 32.4536 0.4527C40.6859 0.076084 43.1587 0 63.9981 0C84.8451 0 87.3103 0.0836924 95.5464 0.4527C103.159 0.798882 107.286 2.07329 110.044 3.13847C113.689 4.54983 116.287 6.2465 119.022 8.97792C121.757 11.7093 123.443 14.3114 124.862 17.9558C125.934 20.7063 127.201 24.8414 127.547 32.4536C127.924 40.6897 128 43.1549 128 64.0019C128 84.8413 127.924 87.3141 127.547 95.5501C127.201 103.162 125.927 107.298 124.862 110.048C123.443 113.692 121.753 116.291 119.022 119.022C116.291 121.753 113.689 123.443 110.044 124.862C107.294 125.934 103.159 127.201 95.5464 127.547C87.3179 127.924 84.8451 128 63.9981 128C43.1587 128 40.6859 127.928 32.4575 127.547Z" fill="url(#paint1_radial_1720_228)"/>
<path d="M48.2848 64.2728C48.2848 55.5189 55.3792 48.4206 64.1331 48.4206C72.887 48.4206 79.9852 55.5189 79.9852 64.2728C79.9852 73.0266 72.887 80.1249 64.1331 80.1249C55.3792 80.1249 48.2848 73.0266 48.2848 64.2728ZM39.7154 64.2728C39.7154 77.7587 50.6472 88.6904 64.1331 88.6904C77.619 88.6904 88.5508 77.7587 88.5508 64.2728C88.5508 50.7869 77.619 39.8551 64.1331 39.8551C50.6472 39.8551 39.7158 50.7861 39.7158 64.2728M83.8115 38.8869C83.811 40.0155 84.1453 41.1189 84.7719 42.0576C85.3985 42.9962 86.2895 43.728 87.332 44.1603C88.3745 44.5926 89.5218 44.7061 90.6288 44.4863C91.7358 44.2666 92.7528 43.7235 93.5511 42.9258C94.3495 42.1281 94.8934 41.1115 95.114 40.0047C95.3346 38.8979 95.2221 37.7505 94.7906 36.7076C94.3591 35.6648 93.6281 34.7733 92.6899 34.1459C91.7518 33.5185 90.6487 33.1834 89.5201 33.1829H89.5178C88.005 33.1836 86.5543 33.7847 85.4844 34.8542C84.4145 35.9237 83.8128 37.3741 83.8115 38.8869ZM44.9219 102.98C40.2857 102.769 37.7658 101.996 36.0912 101.344C33.871 100.48 32.287 99.4502 30.6215 97.787C28.956 96.1238 27.9251 94.5413 27.0646 92.3212C26.4118 90.6473 25.6395 88.1266 25.4288 83.4905C25.1982 78.478 25.1522 76.9723 25.1522 64.2735C25.1522 51.5747 25.202 50.0732 25.4288 45.0566C25.6399 40.4204 26.4179 37.9047 27.0646 36.2259C27.9289 34.0058 28.9583 32.4217 30.6215 30.7562C32.2847 29.0907 33.8672 28.0598 36.0912 27.1993C37.765 26.5465 40.2857 25.7742 44.9219 25.5635C49.9343 25.3329 51.44 25.2869 64.1331 25.2869C76.8262 25.2869 78.3334 25.336 83.35 25.5642C87.9862 25.7754 90.5019 26.5533 92.1807 27.2C94.4009 28.0606 95.9849 29.0938 97.6504 30.757C99.3159 32.4202 100.343 34.0065 101.207 36.2267C101.86 37.9005 102.632 40.4212 102.843 45.0574C103.074 50.074 103.12 51.5755 103.12 64.2743C103.12 76.9731 103.074 78.4746 102.843 83.4912C102.632 88.1274 101.856 90.6473 101.207 92.3219C100.343 94.542 99.3136 96.1261 97.6504 97.7878C95.9872 99.4495 94.4009 100.48 92.1807 101.345C90.5069 101.998 87.9862 102.77 83.35 102.981C78.3376 103.211 76.8319 103.257 64.1331 103.257C51.4343 103.257 49.9328 103.211 44.9219 102.981M44.5281 17.0082C39.4659 17.2387 36.0067 18.0414 32.9858 19.2169C29.8591 20.4308 27.2087 22.0594 24.5622 24.7018C21.9156 27.3442 20.2912 29.995 19.0773 33.1255C17.9018 36.1483 17.0991 39.6056 16.8685 44.6678C16.6342 49.738 16.5806 51.359 16.5806 64.2728C16.5806 77.1865 16.6342 78.8075 16.8685 83.8777C17.0991 88.9404 17.9018 92.3972 19.0773 95.4201C20.2912 98.5467 21.916 101.202 24.5622 103.844C27.2084 106.485 29.8553 108.111 32.9858 109.329C36.0124 110.504 39.4659 111.307 44.5281 111.537C49.601 111.768 51.2194 111.825 64.1331 111.825C77.0468 111.825 78.6678 111.772 83.7381 111.537C88.8007 111.307 92.2576 110.504 95.2804 109.329C98.4071 108.111 101.057 106.486 103.704 103.844C106.351 101.201 107.972 98.5467 109.189 95.4201C110.364 92.3972 111.171 88.94 111.398 83.8777C111.628 78.8037 111.682 77.1865 111.682 64.2728C111.682 51.359 111.628 49.738 111.398 44.6678C111.167 39.6052 110.364 36.1464 109.189 33.1255C107.972 29.9988 106.346 27.3484 103.704 24.7018C101.062 22.0552 98.4071 20.4308 95.2842 19.2169C92.2576 18.0414 88.8003 17.2349 83.7419 17.0082C78.6709 16.7765 77.0507 16.7202 64.1388 16.7202C51.227 16.7202 49.603 16.7739 44.53 17.0082" fill="white"/>
</g>
<defs>
<radialGradient id="paint0_radial_1720_228" cx="0" cy="0" r="1" gradientUnits="userSpaceOnUse" gradientTransform="translate(8.28403 125.196) scale(162.512)">
<stop offset="0.09" stop-color="#FA8F21"/>
<stop offset="0.78" stop-color="#D82D7E"/>
</radialGradient>
<radialGradient id="paint1_radial_1720_228" cx="0" cy="0" r="1" gradientUnits="userSpaceOnUse" gradientTransform="translate(88.6611 121.086) scale(143.013)">
<stop offset="0.64" stop-color="#8C3AAA" stop-opacity="0"/>
<stop offset="1" stop-color="#8C3AAA"/>
</radialGradient>
<clipPath id="clip0_1720_228">
<rect width="128" height="128" fill="white"/>
</clipPath>
</defs>
</svg>
