<svg width="128" height="128" viewBox="0 0 128 128" fill="none" xmlns="http://www.w3.org/2000/svg">
<rect width="128" height="128" rx="20" fill="white"/>
<g clip-path="url(#clip0_1721_347)">
<path d="M25.0003 69.6482L25.1942 40.5622C25.2281 35.2967 28.9106 30.7828 33.9942 29.7767L62.0839 24.2082C68.833 22.8701 75.0972 28.1525 75.0536 35.1416L74.8596 64.2325C74.8233 69.4955 71.1409 74.007 66.0572 75.0155L37.9675 80.584C31.2184 81.9222 24.9542 76.6398 25.0003 69.6482Z" fill="#111827" fill-opacity="0.2"/>
<path d="M38.7625 81.2533L38.9564 52.1624C38.9879 46.9018 42.6728 42.3903 47.7564 41.3818L75.8461 35.8158C82.5952 34.4776 88.8594 39.7576 88.8134 46.7491L88.6194 75.84C88.5855 81.103 84.9031 85.6146 79.8194 86.623L51.7297 92.1915C44.9806 93.5273 38.7164 88.2473 38.7625 81.2582V81.2533Z" fill="#111827" fill-opacity="0.5"/>
<path d="M52.5246 92.8582L52.7186 63.7673C52.7525 58.5018 56.4349 53.9927 61.5186 52.9842L89.6083 47.4158C96.3574 46.0776 102.622 51.36 102.576 58.3491L102.382 87.44C102.348 92.7055 98.6652 97.217 93.5816 98.223L65.4919 103.792C58.7428 105.13 52.4786 99.8473 52.5222 92.8582H52.5246Z" fill="#111827" fill-opacity="0.8"/>
</g>
<defs>
<clipPath id="clip0_1721_347">
<rect width="77.5758" height="80" fill="white" transform="translate(25 24)"/>
</clipPath>
</defs>
</svg>
