<svg width="128" height="128" viewBox="0 0 128 128" fill="none" xmlns="http://www.w3.org/2000/svg">
<rect width="128" height="128" rx="20" fill="white"/>
<path d="M77.2671 83.7705L68.2787 92.4539C66.7186 94.0165 64.5684 94.6666 62.1982 94.6666C59.8279 94.6666 57.6802 94.0165 56.1176 92.4539L41.6761 77.9225C40.126 76.3598 39.3334 74.0796 39.3334 71.7093C39.3334 69.3291 40.126 67.1789 41.6761 65.6287L56.0776 51.0173C57.6277 49.4697 59.8279 48.8696 62.1982 48.8696C64.5684 48.8696 66.7186 49.5197 68.2787 51.0823L77.2671 59.7657C78.9848 61.4858 81.8251 61.4233 83.6077 59.6357C85.3779 57.853 85.4454 55.0152 83.7253 53.295L75.0419 44.5167C72.7892 42.289 69.9614 40.7538 66.8886 40.0487L75.1069 31.7154C76.8271 29.9978 76.7746 27.1575 74.9894 25.3748C73.2042 23.5921 70.3665 23.5371 68.6488 25.2448L34.973 58.9206C31.7052 62.2009 30 66.7038 30 71.7043C30 76.6948 31.7077 81.3553 34.973 84.6256L49.4669 99.157C52.7347 102.425 57.2552 104 62.2557 104C67.2436 104 71.7591 102.292 75.0294 99.027L83.7278 90.2237C85.4479 88.516 85.3804 85.6807 83.5977 83.8955C81.8151 82.1104 78.9748 82.0454 77.2696 83.7655L77.2671 83.7705ZM92.9687 67.3739H59.1379C56.8076 67.3739 54.9074 69.3766 54.9074 71.8519C54.9074 74.3296 56.8076 76.3448 59.1379 76.3448H92.9687C95.3014 76.3448 97.2016 74.3271 97.2016 71.8519C97.2016 69.3791 95.3014 67.3739 92.9687 67.3739Z" fill="black"/>
</svg>
