<svg width="128" height="128" viewBox="0 0 128 128" fill="none" xmlns="http://www.w3.org/2000/svg">
<path d="M108 0H20C8.95431 0 0 8.95431 0 20V108C0 119.046 8.95431 128 20 128H108C119.046 128 128 119.046 128 108V20C128 8.95431 119.046 0 108 0Z" fill="#2867B2"/>
<path d="M46.4 96H32.8V53.2H46.4V96ZM39.6 47.2C35.2 47.2 32 44 32 39.6C32 35.2 35.6 32 39.6 32C44 32 47.2 35.2 47.2 39.6C47.2 44 44 47.2 39.6 47.2ZM96 96H82.4V72.8C82.4 66 79.6 64 75.6 64C71.6 64 67.6 67.2 67.6 73.2V96H54V53.2H66.8V59.2C68 56.4 72.8 52 79.6 52C87.2 52 95.2 56.4 95.2 69.6V96H96Z" fill="white"/>
</svg>
