<svg width="128" height="128" viewBox="0 0 128 128" fill="none" xmlns="http://www.w3.org/2000/svg">
<path d="M108 0H20C8.95431 0 0 8.95431 0 20V108C0 119.046 8.95431 128 20 128H108C119.046 128 128 119.046 128 108V20C128 8.95431 119.046 0 108 0Z" fill="white"/>
<path d="M39.6 48.8C39.6 48 39.2 47.2 38.8 46.8L32.8 39.6V38.4H51.2L65.6 70L78.4 38.4H96V39.6L90.8 44.4C90.4 44.8 90 45.2 90.4 46V82C90.4 82.4 90.4 83.2 90.8 83.6L95.6 88.4V89.6H70.4V88.4L75.6 83.2C76 82.8 76 82.4 76 81.6V52.4L61.6 88.8H60L43.2 52.4V76.8C43.2 78 43.6 78.8 44 79.6L50.8 87.6V88.8H32V87.6L38.8 79.6C39.6 78.8 40 78 39.6 76.8V48.8Z" fill="black"/>
</svg>
