<svg width="128" height="128" viewBox="0 0 128 128" fill="none" xmlns="http://www.w3.org/2000/svg">
<path d="M108 0H20C8.95431 0 0 8.95431 0 20V108C0 119.046 8.95431 128 20 128H108C119.046 128 128 119.046 128 108V20C128 8.95431 119.046 0 108 0Z" fill="#E60023"/>
<path d="M64 32C46.4 32 32 46.4 32 64C32 77.2 40 88.4 51.2 93.2C51.2 90.8 51.2 88.4 51.6 86C52.4 83.2 55.6 68.4 55.6 68.4C55.6 68.4 54.4 66.4 54.4 63.2C54.4 58.4 57.2 54.8 60.4 54.8C63.2 54.8 64.8 56.8 64.8 59.6C64.8 62.4 62.8 66.8 62 70.8C61.2 74 63.6 76.8 67.2 76.8C73.2 76.8 77.2 69.2 77.2 59.6C77.2 52.4 72.4 47.2 64 47.2C54.4 47.2 48.4 54.4 48.4 62.4C48.4 65.2 49.2 67.2 50.4 68.8C50.8 69.6 51.2 69.6 50.8 70.4C50.8 70.8 50.4 72.4 50 72.8C49.6 73.6 49.2 74 48.4 73.6C44 71.6 42 66.8 42 61.2C42 52 49.6 41.2 64.8 41.2C77.2 41.2 85.2 50 85.2 59.6C85.2 72 78.4 81.6 68 81.6C64.4 81.6 61.2 79.6 60 77.6C60 77.6 58 84.8 57.6 86.4C56.8 88.8 55.6 91.2 54.4 93.2C57.2 94 60.4 94.4 63.6 94.4C81.2 94.4 95.6 80 95.6 62.4C96 46.4 81.6 32 64 32Z" fill="white"/>
</svg>
