<svg width="128" height="128" viewBox="0 0 128 128" fill="none" xmlns="http://www.w3.org/2000/svg">
<rect width="128" height="128" rx="20" fill="#DE5425"/>
<path d="M114 64C114 91.62 91.62 114 64 114C36.38 114 14 91.62 14 64C14 36.38 36.38 14 64 14C91.62 14 114 36.38 114 64Z" fill="#DA552F"/>
<path d="M70.66 64H56.5V49H70.66C74.8 49 78.16 52.36 78.16 56.5C78.16 60.64 74.8 64 70.66 64ZM70.66 39H46.5V89H56.5V74H70.66C80.32 74 88.16 66.16 88.16 56.5C88.16 46.84 80.34 39 70.66 39Z" fill="white"/>
</svg>
