<svg width="128" height="128" viewBox="0 0 128 128" fill="none" xmlns="http://www.w3.org/2000/svg">
<g clip-path="url(#clip0_1721_260)">
<path d="M108.8 0H19.2C8.59613 0 0 8.59613 0 19.2V108.8C0 119.404 8.59613 128 19.2 128H108.8C119.404 128 128 119.404 128 108.8V19.2C128 8.59613 119.404 0 108.8 0Z" fill="#FF4400"/>
<path d="M64 106C86.9198 106 105.5 92.9043 105.5 76.75C105.5 60.5957 86.9198 47.5 64 47.5C41.0802 47.5 22.5 60.5957 22.5 76.75C22.5 92.9043 41.0802 106 64 106Z" fill="white"/>
<path d="M26.5 74.5C32.299 74.5 37 69.799 37 64C37 58.201 32.299 53.5 26.5 53.5C20.701 53.5 16 58.201 16 64C16 69.799 20.701 74.5 26.5 74.5Z" fill="white"/>
<path d="M101.75 74.5C107.549 74.5 112.25 69.799 112.25 64C112.25 58.201 107.549 53.5 101.75 53.5C95.951 53.5 91.25 58.201 91.25 64C91.25 69.799 95.951 74.5 101.75 74.5Z" fill="white"/>
<path d="M93.75 36.5C98.1683 36.5 101.75 32.9183 101.75 28.5C101.75 24.0817 98.1683 20.5 93.75 20.5C89.3317 20.5 85.75 24.0817 85.75 28.5C85.75 32.9183 89.3317 36.5 93.75 36.5Z" fill="white"/>
<path d="M64 49L69.75 23.75L88 27.5" stroke="white" stroke-width="4" stroke-linecap="round" stroke-linejoin="round"/>
<path d="M47.75 89.75C56 96 72 96.25 80.25 89.75" stroke="#FF4400" stroke-width="3.25" stroke-linecap="round" stroke-linejoin="round"/>
<path d="M47.75 79.5C52.0302 79.5 55.5 76.0302 55.5 71.75C55.5 67.4698 52.0302 64 47.75 64C43.4698 64 40 67.4698 40 71.75C40 76.0302 43.4698 79.5 47.75 79.5Z" fill="#FF4400"/>
<path d="M80.25 79.5C84.5302 79.5 88 76.0302 88 71.75C88 67.4698 84.5302 64 80.25 64C75.9698 64 72.5 67.4698 72.5 71.75C72.5 76.0302 75.9698 79.5 80.25 79.5Z" fill="#FF4400"/>
</g>
<defs>
<clipPath id="clip0_1721_260">
<rect width="128" height="128" fill="white"/>
</clipPath>
</defs>
</svg>
