<svg width="128" height="128" viewBox="0 0 128 128" fill="none" xmlns="http://www.w3.org/2000/svg">
<g clip-path="url(#clip0_1720_215)">
<path d="M108.8 0H19.2C8.59613 0 0 8.59613 0 19.2V108.8C0 119.404 8.59613 128 19.2 128H108.8C119.404 128 128 119.404 128 108.8V19.2C128 8.59613 119.404 0 108.8 0Z" fill="#00D0AF"/>
<path d="M67.75 95.75C64 94.75 62 93.25 58.75 89.25C56.5 86.25 52.25 79.5 50 76L48.5 73.25H42.5V81.75C42.75 92.5 42.5 92.25 47.25 93L49.75 93.25V94.25V95.25H29.75V94.25C29.75 93.25 30 93.25 32 92.75C34.5 92.25 35.5 91.5 35.75 89.25C36 88.25 36 81.5 36 69.5C36 52 35.75 51.5 35.25 50.25C34.5 49 33.5 48.5 30.75 48.25C29.75 48 29.5 48 29.5 47V46L40.25 45.75C54 45.5 56.5 45.75 60.5 48.5C64.25 51 66 54.5 65.5 59.25C65.25 64.5 61.25 69.75 56.25 71.75C55.25 72 54.5 72.5 54.5 72.5C54.5 73 58.75 79.5 61.5 83.25C65.25 88.5 68.25 91.25 70.5 92.5C71.5 93 72.75 93.25 73 93.25C73.75 93.25 73.75 93.5 73.75 94.25C73.75 95 73.5 95.5 73.25 95.5C72 96 68.5 96 66.75 95.5L67.75 95.75ZM53.5 68.5C57 66.75 59 64 59.25 59.75C59.5 56.5 58.75 54.25 56.75 52.25C54.5 49.75 50.5 48.75 44.75 49.25L42.25 49.5V59.25C42.25 68.25 42.25 69.25 42.75 69.25C43 69.25 45 69.5 47.25 69.25C50.75 69.25 51.5 69 53.25 68.25L53.5 68.5Z" fill="#FEFFFF"/>
<path d="M80.2499 57C73.9999 56 71.7499 52 72.2499 41.75C72.4999 36.5 72.9999 34.25 74.9999 32.25C76.7499 30.5 78.2499 30 81.2499 29.75C84.4999 29.5 86.4999 30.25 88.4999 31.75C89.7499 32.75 90.7499 34.25 90.7499 35C90.7499 35.25 89.9999 35.5 89.2499 36L87.7499 36.75L86.9999 36C85.7499 34.5 84.7499 33.75 83.4999 33.25C80.9999 32.5 78.4999 33.75 77.2499 36C76.4999 37.25 76.4999 37.5 76.4999 43.25C76.4999 48.75 76.4999 49.5 77.2499 50.5C78.2499 52.25 80.2499 53.25 82.4999 53C85.7499 52.75 87.4999 50.5 87.4999 47V45.25H84.9999H82.4999V42H91.4999V45.75C91.4999 48.75 91.2499 49.75 90.7499 51.25C89.2499 55 84.9999 57.25 80.2499 56.75V57Z" fill="#FEFFFF"/>
</g>
<defs>
<clipPath id="clip0_1720_215">
<rect width="128" height="128" fill="white"/>
</clipPath>
</defs>
</svg>
