<svg width="128" height="128" viewBox="0 0 128 128" fill="none" xmlns="http://www.w3.org/2000/svg">
<path d="M0 20C0 8.95431 8.95431 0 20 0H108C119.046 0 128 8.95431 128 20V108C128 119.046 119.046 128 108 128H20C8.95431 128 0 119.046 0 108V20Z" fill="#3A76F0"/>
<path d="M56.3176 32.9342L57.0358 35.8435C54.2051 36.5431 51.4957 37.6648 48.9989 39.171L47.4624 36.5981C50.2107 34.9337 53.1968 33.6982 56.3176 32.9342V32.9342ZM71.6823 32.9342L70.9641 35.8435C73.7948 36.5431 76.5042 37.6648 79.001 39.171L80.5557 36.5981C77.8001 34.9352 74.8083 33.6999 71.6823 32.9342V32.9342ZM36.598 47.4534C34.9353 50.2057 33.6999 53.1945 32.9342 56.3176L35.8434 57.0359C36.5431 54.2051 37.6648 51.4958 39.1709 48.9989L36.598 47.4534ZM34.9979 64C34.9977 62.5452 35.1071 61.0925 35.3252 59.6542L32.3614 59.1997C31.8795 62.3787 31.8795 65.6122 32.3614 68.7912L35.3252 68.3458C35.1075 66.9074 34.9981 65.4547 34.9979 64V64ZM80.5375 91.3928L79.001 88.829C76.5081 90.3366 73.8016 91.4584 70.9732 92.1565L71.6914 95.0658C74.8084 94.2944 77.7908 93.0561 80.5375 91.3928ZM93.002 64C93.0019 65.4547 92.8925 66.9074 92.6747 68.3458L95.6385 68.7912C96.1204 65.6122 96.1204 62.3787 95.6385 59.1997L92.6747 59.6542C92.8928 61.0925 93.0022 62.5452 93.002 64V64ZM95.0658 71.6733L92.1565 70.955C91.4585 73.7892 90.3367 76.5018 88.829 79.001L91.4019 80.5466C93.0663 77.7918 94.3017 74.7998 95.0658 71.6733V71.6733ZM68.3457 92.6747C65.465 93.1112 62.5349 93.1112 59.6542 92.6747L59.2087 95.6386C62.3847 96.1205 65.6152 96.1205 68.7912 95.6386L68.3457 92.6747ZM87.347 81.2012C85.619 83.5445 83.547 85.6134 81.2012 87.338L82.9831 89.7563C85.567 87.8542 87.8529 85.5775 89.7654 83.0013L87.347 81.2012ZM81.2012 40.6529C83.5472 42.3808 85.6192 44.4527 87.347 46.7988L89.7654 44.9987C87.8596 42.4201 85.5798 40.1403 83.0013 38.2346L81.2012 40.6529ZM40.6529 46.7988C42.3807 44.4527 44.4527 42.3808 46.7988 40.6529L44.9986 38.2346C42.4201 40.1403 40.1403 42.4201 38.2345 44.9987L40.6529 46.7988ZM91.4019 47.4534L88.829 48.9989C90.3365 51.4918 91.4584 54.1984 92.1565 57.0268L95.0658 56.3086C94.3 53.1883 93.0646 50.2025 91.4019 47.4534V47.4534ZM59.6542 35.3253C62.5349 34.8888 65.465 34.8888 68.3457 35.3253L68.7912 32.3614C65.6152 31.8795 62.3847 31.8795 59.2087 32.3614L59.6542 35.3253ZM42.1893 90.5564L35.998 91.9929L37.4436 85.8015L34.5252 85.1197L33.0796 91.311C32.9892 91.6949 32.9753 92.0928 33.0388 92.482C33.1022 92.8712 33.2418 93.2441 33.4496 93.5794C33.6573 93.9146 33.9291 94.2056 34.2494 94.4357C34.5696 94.6658 34.9321 94.8305 35.3161 94.9203C35.7652 95.0204 36.2308 95.0204 36.6799 94.9203L42.8712 93.493L42.1893 90.5564ZM35.1434 82.4467L38.0709 83.1195L39.0709 78.8283C37.6105 76.3785 36.5228 73.725 35.8434 70.955L32.9342 71.6733C33.5885 74.3247 34.5784 76.8819 35.8798 79.2829L35.1434 82.4467ZM49.1444 88.9381L44.8532 89.9382L45.535 92.8657L48.6898 92.1292C51.089 93.4346 53.6467 94.4246 56.2994 95.0749L57.0177 92.1656C54.2563 91.4774 51.6122 90.3836 49.1716 88.9199L49.1444 88.9381ZM64 37.9982C49.6353 38.0073 38.0072 49.6535 38.0072 64.0091C38.0151 68.8986 39.3982 73.6874 41.9984 77.8282L39.4982 88.5017L50.1626 86.0015C62.318 93.6475 78.3737 90.0018 86.0197 77.8555C93.6657 65.7092 90.0291 49.6535 77.8827 41.9985C73.7245 39.3836 68.912 37.9969 64 37.9982" fill="white"/>
</svg>
