<svg width="128" height="128" viewBox="0 0 128 128" fill="none" xmlns="http://www.w3.org/2000/svg">
<path d="M108 0H20C8.95431 0 0 8.95431 0 20V108C0 119.046 8.95431 128 20 128H108C119.046 128 128 119.046 128 108V20C128 8.95431 119.046 0 108 0Z" fill="#0078D7"/>
<path d="M64.0001 83.2C53.2001 83.2 48.4 77.6 48.4 73.6C48.4 72.8 48.8002 71.6 49.6002 71.2C50.4002 70.4 51.2001 70.4 52.0001 70.4C56.4001 70.4 55.2001 77.2 64.0001 77.2C68.4001 77.2 70.8001 74.4 70.8001 72C70.8001 70.4 70 68.8 67.2001 68L57.6002 65.6C50.0002 63.6 48.8001 59.2 48.8001 55.6C48.8001 47.2 56.4002 44.4 63.6002 44.4C70.0002 44.4 78.0001 48 78.0001 52.8C78.0001 54.8 76.4001 56 74.0001 56C70.0001 56 70.8001 50.4 62.8001 50.4C58.8001 50.4 56.8001 52.4 56.8001 54.8C56.8001 57.2 60 58.4 62.4 58.8L69.6002 60.4C77.2002 62 79.2001 66.8 79.2001 70.8C79.2001 78.4 74.0001 83.2 64.0001 83.2ZM93.6002 69.2C94.0002 67.6 94.0001 65.6 94.0001 64C94.0001 55.2 90 46.8 83.2001 40.8C76.4001 34.8 67.2 32.8 58.4 34C56 32.8 52.8002 32 49.6002 32C43.2002 32 37.2001 35.6 34.0001 41.2C30.8001 46.8 30.8001 53.6 34.0001 59.2C32.4001 68.8 35.2 78.8 42.4 86C49.2 92.8 59.2001 96 68.8001 94.4C71.6001 96 74.4002 96.8 77.6002 96.8C84.0002 96.8 90 93.2 93.2001 87.6C96.4 81.6 96.8002 74.8 93.6002 69.2Z" fill="white"/>
</svg>
