<svg width="128" height="128" viewBox="0 0 128 128" fill="none" xmlns="http://www.w3.org/2000/svg">
<path d="M128 20C128 8.95431 119.046 0 108 0H20C8.95431 0 0 8.95431 0 20V108C0 119.046 8.95431 128 20 128H108C119.046 128 128 119.046 128 108V20Z" fill="#4A154B"/>
<path d="M45.503 72.4585C45.503 76.1783 42.4966 79.1846 38.7769 79.1846C35.0572 79.1846 32.0508 76.1783 32.0508 72.4585C32.0508 68.7388 35.0572 65.7324 38.7769 65.7324H45.503V72.4585Z" fill="#E01E5A"/>
<path d="M48.8672 72.4588C48.8672 68.739 51.8736 65.7327 55.5933 65.7327C59.313 65.7327 62.3194 68.739 62.3194 72.4588V89.2741C62.3194 92.9938 59.313 96.0002 55.5933 96.0002C51.8736 96.0002 48.8672 92.9938 48.8672 89.2741V72.4588Z" fill="#E01E5A"/>
<path d="M55.5933 45.4522C51.8736 45.4522 48.8672 42.4459 48.8672 38.7261C48.8672 35.0064 51.8736 32 55.5933 32C59.313 32 62.3194 35.0064 62.3194 38.7261V45.4522H55.5933Z" fill="#36C5F0"/>
<path d="M55.5924 48.8662C59.3121 48.8662 62.3185 51.8726 62.3185 55.5923C62.3185 59.3121 59.3121 62.3184 55.5924 62.3184H38.7261C35.0064 62.3184 32 59.3121 32 55.5923C32 51.8726 35.0064 48.8662 38.7261 48.8662H55.5924Z" fill="#36C5F0"/>
<path d="M82.5488 55.5923C82.5488 51.8726 85.5552 48.8662 89.2749 48.8662C92.9947 48.8662 96.0011 51.8726 96.0011 55.5923C96.0011 59.3121 92.9947 62.3184 89.2749 62.3184H82.5488V55.5923Z" fill="#2EB67D"/>
<path d="M79.1847 55.5924C79.1847 59.3121 76.1783 62.3185 72.4585 62.3185C68.7388 62.3185 65.7324 59.3121 65.7324 55.5924V38.7261C65.7324 35.0064 68.7388 32 72.4585 32C76.1783 32 79.1847 35.0064 79.1847 38.7261V55.5924Z" fill="#2EB67D"/>
<path d="M72.4585 82.5479C76.1783 82.5479 79.1847 85.5542 79.1847 89.274C79.1847 92.9937 76.1783 96.0001 72.4585 96.0001C68.7388 96.0001 65.7324 92.9937 65.7324 89.274V82.5479H72.4585Z" fill="#ECB22E"/>
<path d="M72.4585 79.1846C68.7388 79.1846 65.7324 76.1783 65.7324 72.4585C65.7324 68.7388 68.7388 65.7324 72.4585 65.7324H89.3248C93.0445 65.7324 96.0509 68.7388 96.0509 72.4585C96.0509 76.1783 93.0445 79.1846 89.3248 79.1846H72.4585Z" fill="#ECB22E"/>
</svg>
