<svg width="128" height="128" viewBox="0 0 128 128" fill="none" xmlns="http://www.w3.org/2000/svg">
<rect width="128" height="128" rx="20" fill="#FFFC00"/>
<path d="M0 95.4433V95.449C0.0766063 98.2904 0.100235 101.148 0.579522 103.972C1.08741 106.96 1.81343 109.873 3.19856 112.585C5.07119 116.255 7.64298 119.354 10.8893 121.886C13.2201 123.704 15.7662 125.147 18.5848 126.057C22.6946 127.383 26.9346 127.891 31.2365 127.916C33.9204 127.933 36.6027 128 39.2876 127.989C58.7862 127.907 78.2852 128.13 97.7843 127.868C100.372 127.833 102.917 127.518 105.456 127.053C110.324 126.162 114.625 124.086 118.306 120.802C122.595 116.977 125.489 112.295 126.795 106.644C127.65 102.95 127.864 99.2032 127.9 95.4428V94.6926C127.9 94.4016 127.79 30.798 127.779 29.9573C127.751 27.6479 127.581 25.356 127.148 23.0836C126.621 20.3146 125.877 17.6165 124.551 15.1113C123.151 12.4647 121.397 10.0849 119.228 8.00536C115.906 4.81924 112.071 2.56606 107.608 1.37419C103.576 0.297969 99.4626 0.0596935 95.3194 0.0634243C95.3127 0.0624295 95.2971 0.0203952 95.2961 0H32.5843C32.5831 0.0213901 32.5823 0.0427804 32.5808 0.0634243C30.2294 0.106453 27.8745 0.0887934 25.535 0.378803C22.9722 0.697416 20.434 1.1772 18.0082 2.0731C14.1873 3.48633 10.8677 5.68752 8.03198 8.62617C4.81924 11.9556 2.55462 15.806 1.35305 20.2897C0.281056 24.2902 0.0477562 28.3702 0.0420356 32.4791" fill="#FFFC00"/>
<path d="M64.5303 107.996C64.2647 107.996 64.0113 107.986 63.8185 107.977C63.6655 107.99 63.5076 107.996 63.3494 107.996C57.7688 107.996 54.0375 105.357 50.7447 103.028C48.3846 101.361 46.1587 99.7867 43.5511 99.353C42.2705 99.1405 40.9965 99.0328 39.7656 99.0328C37.5477 99.0328 35.795 99.3768 34.5153 99.627C33.7279 99.7805 33.0489 99.9126 32.524 99.9126C31.9744 99.9126 31.3066 99.7907 31.0282 98.8403C30.8076 98.0907 30.6494 97.3644 30.4967 96.665C30.1147 94.9173 29.8376 93.8505 29.1832 93.7492C22.1839 92.6693 18.0484 91.0785 17.2247 89.1519C17.1384 88.9494 17.0901 88.7457 17.0794 88.5442C17.0473 87.9699 17.4527 87.4663 18.0188 87.3725C23.5773 86.4572 28.5196 83.5193 32.7093 78.6377C35.9549 74.8583 37.5487 71.2474 37.7199 70.8487C37.7273 70.8308 37.736 70.8119 37.745 70.7947C38.5526 69.1561 38.7132 67.7402 38.224 66.5873C37.3221 64.4605 34.3352 63.5129 32.3591 62.8858C31.8677 62.7304 31.4028 62.5832 31.0325 62.4362C29.2807 61.7442 26.3998 60.2822 26.7836 58.2643C27.0631 56.7929 29.0094 55.7682 30.5823 55.7682C31.019 55.7682 31.406 55.8448 31.7319 55.9977C33.5092 56.8305 35.1083 57.2525 36.4835 57.2525C38.1937 57.2525 39.0197 56.6014 39.2194 56.4163C39.1701 55.504 39.11 54.5395 39.0518 53.6272C39.0518 53.6262 39.0505 53.6152 39.0505 53.6152C38.6491 47.2293 38.1484 39.2821 40.1812 34.7248C46.2654 21.0832 59.1684 20.0224 62.9768 20.0224C63.0783 20.0224 64.6368 20.0069 64.6368 20.0069C64.7072 20.0057 64.7835 20.0047 64.8626 20.0047C68.6815 20.0047 81.6113 21.0667 87.6993 34.7166C89.7321 39.2769 89.2309 47.2308 88.8282 53.6234L88.8093 53.9294C88.7541 54.7974 88.7031 55.6189 88.6601 56.4153C88.8481 56.5885 89.604 57.1854 91.1418 57.2458C92.4529 57.1956 93.9594 56.7755 95.6183 55.9987C96.1312 55.758 96.699 55.708 97.0846 55.708C97.6673 55.708 98.2603 55.8214 98.7545 56.0276L98.7808 56.0378C100.189 56.5375 101.111 57.5361 101.131 58.5852C101.148 59.5632 100.421 61.0249 96.8468 62.4367C96.4807 62.5817 96.0136 62.7299 95.5201 62.8863C93.5422 63.5141 90.5578 64.4613 89.656 66.5868C89.166 67.7397 89.3272 69.1551 90.135 70.7932C90.144 70.8111 90.1517 70.8293 90.1604 70.8482C90.4091 71.4312 96.4294 85.1584 109.861 87.3713C110.427 87.4655 110.833 87.9697 110.801 88.543C110.789 88.7489 110.739 88.9549 110.652 89.1561C109.834 91.072 105.699 92.6606 98.6978 93.742C98.0406 93.8435 97.7638 94.9056 97.3853 96.6441C97.2286 97.3622 97.0691 98.0661 96.8515 98.8058C96.6478 99.5014 96.1946 99.8414 95.4669 99.8414H95.3572C94.8834 99.8414 94.2121 99.7554 93.3654 99.5897C91.8855 99.3017 90.2258 99.0336 88.1151 99.0336C86.8845 99.0336 85.6108 99.1415 84.3286 99.3537C81.7237 99.7875 79.4982 101.359 77.1423 103.024C73.843 105.357 70.1104 107.996 64.5303 107.996Z" fill="white"/>
<path d="M64.8625 21.1287C68.4578 21.1287 80.8382 22.0945 86.6725 35.1745C88.5936 39.4816 88.1011 47.2838 87.7061 53.5513C87.6445 54.546 87.5833 55.51 87.5335 56.4305L87.5126 56.8262L87.7768 57.121C87.8835 57.2394 88.8821 58.283 91.1032 58.3688L91.139 58.3708L91.1763 58.3701C92.6448 58.3141 94.2988 57.8579 96.095 57.0165C96.3597 56.8926 96.7119 56.8322 97.0844 56.8322C97.509 56.8322 97.9602 56.912 98.3323 57.0687L98.3885 57.0911C99.3304 57.4212 99.9962 58.0435 100.006 58.6066C100.012 58.9249 99.7739 60.0718 96.435 61.3908C96.1087 61.5196 95.6792 61.6567 95.1812 61.8136C93.0084 62.5036 89.7258 63.5447 88.6209 66.1481C87.9989 67.6145 88.1693 69.3452 89.1268 71.2912C89.5208 72.2107 95.7229 86.1809 109.679 88.4806C109.676 88.5467 109.659 88.6191 109.622 88.7044C109.385 89.2616 107.882 91.1864 98.526 92.63C97.0621 92.8543 96.7034 94.4954 96.2875 96.4031C96.1373 97.0861 95.9846 97.7756 95.7747 98.4876C95.7105 98.7028 95.6986 98.715 95.468 98.715C95.4362 98.715 95.3989 98.715 95.3581 98.715C94.9432 98.715 94.3134 98.6289 93.5834 98.4857C92.254 98.2267 90.4379 97.9091 88.116 97.9091C86.8202 97.9091 85.4853 98.0218 84.1459 98.2454C81.2829 98.7214 78.9546 100.368 76.4888 102.111C73.1773 104.451 69.7546 106.873 64.5325 106.873C64.3044 106.873 64.0818 106.865 63.8587 106.854L63.8 106.851L63.741 106.856C63.6129 106.867 63.4839 106.873 63.352 106.873C58.1306 106.873 54.7065 104.452 51.3965 102.111C48.9302 100.368 46.6006 98.7214 43.7381 98.2454C42.4 98.0225 41.0638 97.9091 39.7687 97.9091C37.4474 97.9091 35.629 98.2643 34.3023 98.5237C33.5723 98.6665 32.9403 98.7888 32.5267 98.7888C32.1879 98.7888 32.1815 98.769 32.1098 98.5242C31.8999 97.8116 31.7465 97.1058 31.597 96.4238C31.1801 94.5141 30.8212 92.864 29.358 92.6394C20.0028 91.1946 18.499 89.2665 18.2617 88.7109C18.2247 88.6233 18.208 88.5487 18.2043 88.4826C32.1601 86.1849 38.361 72.2142 38.7562 71.2912C39.7155 69.3466 39.8856 67.6163 39.2616 66.1481C38.1568 63.5462 34.8746 62.5036 32.7033 61.8149C32.2041 61.6569 31.7743 61.5196 31.4477 61.3908C28.6282 60.2768 27.7609 59.1545 27.8898 58.4745C28.0393 57.6903 29.3988 56.8929 30.5852 56.8929C30.8518 56.8929 31.0856 56.9359 31.2585 57.0168C33.1853 57.9199 34.9443 58.3778 36.4871 58.3778C38.9124 58.3778 39.9918 57.2493 40.1077 57.1205L40.3706 56.8265L40.3495 56.4328C40.3005 55.5127 40.2401 54.5489 40.1764 53.5563C39.7827 47.2873 39.2902 39.4903 41.2106 35.1829C47.0232 22.1509 59.3431 21.1463 62.98 21.1463C63.0695 21.1463 64.6506 21.1302 64.6506 21.1302C64.7153 21.1297 64.7872 21.1287 64.8625 21.1287ZM64.8625 18.8807H64.8583C64.7755 18.8807 64.6976 18.8807 64.6235 18.8817C64.0325 18.8877 63.061 18.8971 62.9737 18.8981C60.8432 18.8981 56.5803 19.1991 52.0014 21.2202C49.3833 22.375 47.0284 23.9365 45.0023 25.8614C42.5867 28.1548 40.6189 30.9825 39.1544 34.2672C37.0097 39.0764 37.5188 47.1771 37.9277 53.6869L37.9292 53.6971C37.973 54.3942 38.019 55.1222 38.061 55.8316C37.7464 55.9761 37.2362 56.1286 36.4844 56.1286C35.2746 56.1286 33.836 55.7418 32.2096 54.9797C31.731 54.7569 31.1848 54.6442 30.5822 54.6442C29.6139 54.6442 28.5932 54.9292 27.7077 55.4498C26.5937 56.1039 25.8739 57.0284 25.6784 58.0534C25.5495 58.7314 25.5558 60.0716 27.0444 61.4306C27.8632 62.1787 29.066 62.8687 30.6185 63.4823C31.0259 63.6427 31.5094 63.7959 32.0215 63.9583C33.7987 64.5232 36.4883 65.3765 37.1897 67.0273C37.5451 67.8643 37.3922 68.9656 36.7363 70.2968C36.7191 70.3331 36.702 70.3686 36.6863 70.406C36.5224 70.7887 34.9933 74.2524 31.8566 77.9054C30.0743 79.9827 28.1111 81.7188 26.0249 83.0669C23.4784 84.7127 20.7231 85.7887 17.8362 86.2642C16.7025 86.4503 15.8929 87.4603 15.9561 88.6082C15.9755 88.939 16.0531 89.2688 16.1877 89.5879C16.1886 89.5899 16.1899 89.5919 16.1909 89.5936C16.6493 90.6658 17.7121 91.5767 19.4399 92.38C21.5513 93.3607 24.7091 94.1858 28.8247 94.8312C29.0326 95.2267 29.2485 96.2205 29.398 96.901C29.5545 97.6243 29.7176 98.368 29.9502 99.158C30.2011 100.014 30.852 101.037 32.5242 101.037C33.1579 101.037 33.8867 100.894 34.7306 100.73C35.9665 100.488 37.6566 100.157 39.766 100.157C40.9355 100.157 42.1475 100.26 43.3675 100.462C45.7191 100.854 47.7465 102.286 50.0922 103.945C53.5255 106.372 57.4118 109.119 63.3496 109.119C63.5115 109.119 63.6739 109.114 63.8343 109.102C64.0306 109.112 64.2738 109.119 64.5305 109.119C70.47 109.119 74.3552 106.371 77.7849 103.946L77.7903 103.941C80.1365 102.284 82.1616 100.854 84.5126 100.462C85.732 100.26 86.9438 100.157 88.1138 100.157C90.1289 100.157 91.7245 100.414 93.1492 100.692C94.0789 100.875 94.8014 100.963 95.3558 100.963L95.4101 100.964H95.4663C96.6892 100.964 97.5879 100.292 97.9309 99.1177C98.1587 98.3444 98.3214 97.6181 98.4818 96.8827C98.6216 96.2449 98.8449 95.2227 99.0528 94.823C103.171 94.1763 106.328 93.353 108.439 92.3726C110.163 91.5729 111.225 90.6631 111.686 89.5953C111.824 89.2752 111.905 88.9434 111.923 88.6057C111.988 87.4598 111.177 86.4478 110.043 86.2617C97.2125 84.1471 91.4325 70.9638 91.1935 70.4037C91.178 70.3669 91.1606 70.3303 91.1425 70.2948C90.4866 68.9631 90.3351 67.863 90.6908 67.0246C91.3907 65.3753 94.0786 64.5219 95.857 63.9573C96.3719 63.7952 96.8571 63.641 97.2613 63.4813C99.012 62.7898 100.263 62.0397 101.089 61.1878C102.075 60.1723 102.267 59.1993 102.255 58.5626C102.225 57.022 101.047 55.653 99.1737 54.9827C98.541 54.721 97.8194 54.583 97.0847 54.583C96.5845 54.583 95.8438 54.6517 95.1427 54.979C93.6416 55.6814 92.2971 56.0654 91.1427 56.1201C90.5289 56.089 90.0984 55.956 89.8195 55.8289C89.8546 55.2279 89.8934 54.6106 89.9335 53.9669L89.9501 53.6913C90.3612 47.1773 90.8721 39.0705 88.7264 34.2577C87.2557 30.9614 85.2809 28.1265 82.8556 25.828C80.8215 23.9019 78.4587 22.3407 75.8312 21.1866C71.2587 19.1804 66.9961 18.8807 64.8625 18.8807Z" fill="#020202"/>
</svg>
