<svg width="128" height="128" viewBox="0 0 128 128" fill="none" xmlns="http://www.w3.org/2000/svg">
<rect width="128" height="128" rx="20" fill="white"/>
<path d="M25.6276 75.5054C30.5726 91.9897 45.8692 104 63.9731 104C86.0782 104 103.999 86.0909 103.999 64C103.999 41.9087 86.0782 24 63.9731 24C42.7609 24 25.4043 40.4906 24.0334 61.3426C24.0334 67.3334 24.0334 69.8334 25.6276 75.5054Z" fill="url(#paint0_linear_1721_286)"/>
<path d="M61.9161 54.1797L52.1218 68.3986C49.8129 68.2937 47.4886 68.9468 45.5593 70.2148L24.0523 61.3668C24.0523 61.3668 23.5547 69.5488 25.6286 75.6466L40.8328 81.9163C41.5962 85.3257 43.9366 88.3163 47.3895 89.7549C53.0386 92.1137 59.5524 89.4251 61.9024 83.7771C62.5141 82.3006 62.7992 80.7523 62.7578 79.2071L77.1155 69.2054C85.5021 69.2054 92.3184 62.3729 92.3184 53.982C92.3184 45.5907 85.5021 38.7642 77.1155 38.7642C69.0152 38.7642 61.4621 45.8322 61.9161 54.1797ZM59.5626 82.7951C57.7438 87.1591 52.7258 89.2294 48.3638 87.4131C46.3516 86.5754 44.8323 85.0406 43.9558 83.2106L48.9049 85.2603C52.1218 86.5994 55.8124 85.0748 57.1495 81.8611C58.4909 78.644 56.9692 74.9497 53.7541 73.6106L48.6381 71.492C50.6121 70.7437 52.8564 70.7163 54.9532 71.5883C57.0669 72.4671 58.7072 74.1223 59.5764 76.2371C60.4458 78.3523 60.4424 80.6869 59.5626 82.7951ZM77.1155 64.124C71.5326 64.124 66.9872 59.5746 66.9872 53.982C66.9872 48.394 71.5326 43.8434 77.1155 43.8434C82.7021 43.8434 87.2472 48.394 87.2472 53.982C87.2472 59.5746 82.7021 64.124 77.1155 64.124ZM69.5261 53.9666C69.5261 49.7597 72.9344 46.3474 77.1326 46.3474C81.3346 46.3474 84.7426 49.7597 84.7426 53.9666C84.7426 58.174 81.3346 61.5831 77.1326 61.5831C72.9344 61.5831 69.5261 58.174 69.5261 53.9666Z" fill="white"/>
<defs>
<linearGradient id="paint0_linear_1721_286" x1="64.016" y1="24" x2="64.016" y2="104" gradientUnits="userSpaceOnUse">
<stop stop-color="#111D2E"/>
<stop offset="0.21248" stop-color="#051839"/>
<stop offset="0.40695" stop-color="#0A1B48"/>
<stop offset="0.5811" stop-color="#132E62"/>
<stop offset="0.7376" stop-color="#144B7E"/>
<stop offset="0.87279" stop-color="#136497"/>
<stop offset="1" stop-color="#1387B8"/>
</linearGradient>
</defs>
</svg>
