<svg width="128" height="128" viewBox="0 0 128 128" fill="none" xmlns="http://www.w3.org/2000/svg">
<path d="M108 0H20C8.95431 0 0 8.95431 0 20V108C0 119.046 8.95431 128 20 128H108C119.046 128 128 119.046 128 108V20C128 8.95431 119.046 0 108 0Z" fill="#0088CC"/>
<path d="M32.3997 62.8332C49.5795 55.3482 61.0354 50.4136 66.7674 48.0295C83.1334 41.2223 86.5341 40.0398 88.7507 40.0004C89.2382 39.9922 90.3282 40.113 91.0343 40.686C91.6305 41.1697 91.7945 41.8232 91.873 42.2819C91.9515 42.7406 92.0492 43.7854 91.9715 44.6019C91.0847 53.9204 87.2472 76.534 85.2948 86.9709C84.4687 91.3871 82.8421 92.8679 81.2674 93.0128C77.8451 93.3277 75.2464 90.7511 71.9317 88.5783C66.745 85.1783 63.8148 83.0618 58.7801 79.744C52.9617 75.9098 56.7335 73.8024 60.0494 70.3584C60.9172 69.457 75.9959 55.7418 76.2877 54.4977C76.3242 54.3421 76.3581 53.762 76.0135 53.4557C75.6689 53.1495 75.1604 53.2542 74.7934 53.3375C74.2731 53.4556 65.9872 58.9323 49.9356 69.7676C47.5836 71.3826 45.4533 72.1695 43.5446 72.1283C41.4405 72.0828 37.3929 70.9385 34.3839 69.9604C30.6933 68.7608 27.7601 68.1265 28.0155 66.0891C28.1485 65.0279 29.6099 63.9426 32.3997 62.8332Z" fill="white"/>
</svg>
