<svg width="128" height="128" viewBox="0 0 128 128" fill="none" xmlns="http://www.w3.org/2000/svg">
<path d="M0 20C0 8.95431 8.95431 0 20 0H108C119.046 0 128 8.95431 128 20V108C128 119.046 119.046 128 108 128H20C8.95431 128 0 119.046 0 108V20Z" fill="black"/>
<path d="M57.9935 57.2012V54.7097C57.1399 54.5957 56.2721 54.5244 55.3759 54.5244C44.6921 54.5104 36 63.2097 36 73.9167C36 80.4804 39.272 86.2896 44.2796 89.8064C41.0502 86.3466 39.0728 81.6906 39.0728 76.5935C39.0728 66.043 47.5231 57.4433 57.9935 57.2012Z" fill="#25F4EE"/>
<path d="M58.463 85.4495C63.2288 85.4495 67.1266 81.6481 67.2975 76.9211L67.3117 34.6768H75.0222C74.8656 33.8082 74.7803 32.9112 74.7803 32H64.253L64.2388 74.2443C64.0682 78.9714 60.1701 82.7728 55.4044 82.7728C53.9249 82.7728 52.5308 82.4027 51.2931 81.7477C52.8864 83.983 55.504 85.4495 58.463 85.4495Z" fill="#25F4EE"/>
<path d="M89.4335 49.0144V46.6652C86.4888 46.6652 83.7572 45.7967 81.4526 44.2874C83.5011 46.6367 86.2752 48.3454 89.4335 49.0144Z" fill="#25F4EE"/>
<path d="M81.4525 44.2874C79.2046 41.7104 77.8532 38.3502 77.8532 34.6768H75.0366C75.762 38.6919 78.1521 42.1375 81.4525 44.2874Z" fill="#FE2C55"/>
<path d="M55.3901 65.0463C50.5106 65.0463 46.5415 69.0188 46.5415 73.9024C46.5415 77.3054 48.4762 80.2668 51.293 81.7476C50.2403 80.2953 49.6143 78.5156 49.6143 76.5792C49.6143 71.6956 53.5834 67.7231 58.463 67.7231C59.3734 67.7231 60.2554 67.8797 61.0805 68.136V57.3722C60.2269 57.2582 59.3592 57.1869 58.463 57.1869C58.3064 57.1869 58.1642 57.2011 58.0077 57.2011V65.4592C57.1684 65.2029 56.3006 65.0463 55.3901 65.0463Z" fill="#FE2C55"/>
<path d="M89.4329 49.0144V57.2012C83.97 57.2012 78.9056 55.4501 74.7799 52.4885V73.9168C74.7799 84.6095 66.0879 93.3233 55.3898 93.3233C51.2643 93.3233 47.4233 92.0133 44.2793 89.8065C47.8216 93.6079 52.8718 96 58.4628 96C69.1464 96 77.8528 87.3005 77.8528 76.5935V55.1652C81.9783 58.1268 87.0427 59.878 92.5056 59.878V49.342C91.4386 49.342 90.4143 49.228 89.4329 49.0144Z" fill="#FE2C55"/>
<path d="M74.7799 73.9167V52.4884C78.9056 55.45 83.9701 57.2012 89.4329 57.2012V49.0144C86.2747 48.3454 83.5006 46.6367 81.4521 44.2874C78.1515 42.1375 75.7759 38.6919 75.0218 34.6768H67.3113L67.2971 76.9209C67.1265 81.6479 63.2284 85.4496 58.4628 85.4496C55.5037 85.4496 52.9003 83.983 51.2786 81.7619C48.4618 80.2669 46.5271 77.3198 46.5271 73.9167C46.5271 69.0331 50.4961 65.0607 55.3757 65.0607C56.2861 65.0607 57.1682 65.2172 57.9933 65.4736V57.2155C47.5229 57.4433 39.0726 66.043 39.0726 76.5935C39.0726 81.6907 41.0501 86.3324 44.2794 89.8065C47.4233 92.0133 51.2644 93.3233 55.3899 93.3233C66.0737 93.3233 74.7799 84.6095 74.7799 73.9167Z" fill="white"/>
</svg>
