<svg width="128" height="128" viewBox="0 0 128 128" fill="none" xmlns="http://www.w3.org/2000/svg">
<path d="M128 20C128 8.95431 119.046 0 108 0H20C8.95431 0 0 8.95431 0 20V108C0 119.046 8.95431 128 20 128H108C119.046 128 128 119.046 128 108V20Z" fill="#9146FF"/>
<path d="M48.0085 37.7125L36.58 49.1411V90.2839H50.2942V101.712L61.7228 90.2839H70.8657L91.4371 69.7125V37.7125H48.0085ZM86.8657 67.4268L77.7228 76.5696H68.58L60.58 84.5696V76.5696H50.2942V42.2839H86.8657V67.4268Z" fill="white"/>
<path d="M80.0085 50.2839H75.4371V63.9982H80.0085V50.2839Z" fill="white"/>
<path d="M67.4371 50.2839H62.8657V63.9982H67.4371V50.2839Z" fill="white"/>
</svg>
