<svg width="128" height="128" viewBox="0 0 128 128" fill="none" xmlns="http://www.w3.org/2000/svg">
<path d="M108 0H20C8.95431 0 0 8.95431 0 20V108C0 119.046 8.95431 128 20 128H108C119.046 128 128 119.046 128 108V20C128 8.95431 119.046 0 108 0Z" fill="#1DA1F2"/>
<path d="M96 44C93.6 45.2 91.2 45.6 88.4 46C91.2 44.4 93.2 42 94 38.8C91.6 40.4 88.8 41.2 85.6 42C83.2 39.6 79.6 38 76 38C67.6 38 61.2 46 63.2 54C52.4 53.6 42.8 48.4 36 40.4C32.4 46.4 34.4 54 40 58C38 58 36 57.2 34 56.4C34 62.4 38.4 68 44.4 69.6C42.4 70 40.4 70.4 38.4 70C40 75.2 44.8 79.2 50.8 79.2C46 82.8 38.8 84.8 32 84C38 87.6 44.8 90 52 90C76.4 90 90 69.6 89.2 50.8C92 49.2 94.4 46.8 96 44Z" fill="white"/>
</svg>
