<svg width="128" height="128" viewBox="0 0 128 128" fill="none" xmlns="http://www.w3.org/2000/svg">
<path d="M108 0H20C8.95431 0 0 8.95431 0 20V108C0 119.046 8.95431 128 20 128H108C119.046 128 128 119.046 128 108V20C128 8.95431 119.046 0 108 0Z" fill="#25D366"/>
<path fill-rule="evenodd" clip-rule="evenodd" d="M86.4 41.2C80.4 35.2 72.4 32 64 32C46.4 32 32 46.4 32 64C32 69.6 33.6 75.2 36.4 80L32 96L48.8 91.6C53.6 94 58.8 95.6 64 95.6C81.6 95.6 96 81.2 96 63.6C96 55.2 92.4 47.2 86.4 41.2ZM64 90.4C59.2 90.4 54.4 89.2 50.4 86.8L49.6 86.4L39.6 89.2L42.4 79.6L41.6 78.4C38.8 74 37.6 69.2 37.6 64.4C37.6 50 49.6 38 64 38C71.2 38 77.6 40.8 82.8 45.6C88 50.8 90.4 57.2 90.4 64.4C90.4 78.4 78.8 90.4 64 90.4ZM78.4 70.4C77.6 70 73.6 68 72.8 68C72 67.6 71.6 67.6 71.2 68.4C70.8 69.2 69.2 70.8 68.8 71.6C68.4 72 68 72 67.2 72C66.4 71.6 64 70.8 60.8 68C58.4 66 56.8 63.2 56.4 62.4C56 61.6 56.4 61.2 56.8 60.8C57.2 60.4 57.6 60 58 59.6C58.4 59.2 58.4 58.8 58.8 58.4C59.2 58 58.8 57.6 58.8 57.2C58.8 56.8 57.2 52.8 56.4 51.2C56 50 55.2 50 54.8 50C54.4 50 54 50 53.2 50C52.8 50 52 50 51.2 50.8C50.4 51.6 48.4 53.6 48.4 57.6C48.4 61.6 51.2 65.2 51.6 66C52 66.4 57.2 74.8 65.2 78C72 80.8 73.2 80 74.8 80C76.4 80 79.6 78 80 76.4C80.8 74.4 80.8 72.8 80.4 72.8C80 70.8 79.2 70.8 78.4 70.4Z" fill="white"/>
</svg>
