<svg width="128" height="128" viewBox="0 0 128 128" fill="none" xmlns="http://www.w3.org/2000/svg">
<g clip-path="url(#clip0_1722_348)">
<path d="M0 0H128V128H0V0Z" fill="#F26625"/>
<path d="M59.7318 72.532L37.5479 31.148H47.7878L60.5879 57.176C60.5879 57.604 61.0158 58.028 61.4398 58.456C61.8638 58.884 61.8679 59.308 62.2919 60.164L62.7199 60.592V61.02C63.1479 61.872 63.1478 62.3 63.5718 63.152C63.9998 63.58 63.9999 64.432 64.4239 64.86C64.8519 63.58 65.7039 62.728 66.1319 61.02C66.5599 59.74 67.4119 58.46 68.2639 57.18L81.0639 31.152H90.4519L68.2678 72.96V99.412H59.7359L59.7318 72.532Z" fill="white"/>
</g>
<defs>
<clipPath id="clip0_1722_348">
<rect width="128" height="128" rx="20" fill="white"/>
</clipPath>
</defs>
</svg>
