<svg width="128" height="128" viewBox="0 0 128 128" fill="none" xmlns="http://www.w3.org/2000/svg">
<path d="M108 0H20C8.95431 0 0 8.95431 0 20V108C0 119.046 8.95431 128 20 128H108C119.046 128 128 119.046 128 108V20C128 8.95431 119.046 0 108 0Z" fill="#FF0000"/>
<path d="M94.4 48.4C93.6 45.6 91.6 43.6 88.8 42.8C84 41.6 63.6 41.6 63.6 41.6C63.6 41.6 43.6 41.6 38.4 42.8C35.6 43.6 33.6 45.6 32.8 48.4C32 53.6 32 64 32 64C32 64 32 74.4 33.2 79.6C34 82.4 36 84.4 38.8 85.2C43.6 86.4 64 86.4 64 86.4C64 86.4 84 86.4 89.2 85.2C92 84.4 94 82.4 94.8 79.6C96 74.4 96 64 96 64C96 64 96 53.6 94.4 48.4ZM57.6 73.6V54.4L74.4 64L57.6 73.6Z" fill="white"/>
</svg>
