<svg width="512" height="513" viewBox="0 0 512 513" fill="none" xmlns="http://www.w3.org/2000/svg">
<path d="M403.945 269.651C439.603 269.651 475.261 269.651 512 269.651C511.376 280.265 510.757 290.169 508.844 300.515C508.624 301.718 508.404 302.92 508.177 304.16C504.508 323.359 498.584 341.625 490.793 359.529C490.485 360.247 490.177 360.965 489.86 361.706C481.33 381.424 470.001 399.446 456.458 416.081C455.596 417.169 454.735 418.258 453.874 419.347C441.382 434.704 427.068 448.916 411.014 460.515C409.855 461.377 408.696 462.239 407.539 463.103C399.264 469.209 390.657 474.609 381.728 479.702C380.795 480.246 380.795 480.246 379.843 480.801C347.519 499.538 307.218 512.018 269.633 512.018C269.633 476.36 269.633 440.701 269.633 403.963C275.632 402.963 281.63 401.963 287.811 400.933C291.389 400.121 294.844 399.305 298.351 398.282C299.226 398.028 300.101 397.774 301.002 397.512C320.663 391.516 337.985 381.012 353.452 367.607C354.29 366.905 355.129 366.202 355.992 365.477C367.342 355.698 376.198 344.128 383.748 331.252C384.136 330.597 384.524 329.941 384.924 329.265C390.965 318.91 395.077 308.498 398.313 296.968C398.808 295.21 399.334 293.461 399.866 291.714C402.062 284.31 402.823 277.505 403.945 269.651Z" fill="black"/>
<path d="M269.633 0.0175781C283.279 0.0175781 283.279 0.0175781 287.819 0.759195C288.825 0.92029 289.831 1.08138 290.868 1.24736C291.9 1.42473 292.933 1.60209 293.996 1.78484C295.098 1.97001 296.2 2.15519 297.335 2.34598C300.56 2.89852 303.78 3.47172 306.998 4.05703C307.835 4.20803 308.672 4.35904 309.534 4.51462C345.296 11.1722 380.148 27.461 408.994 49.5008C409.562 49.9257 410.129 50.3505 410.714 50.7883C424.802 61.3425 438.783 73.4194 449.831 87.1813C450.602 88.142 451.374 89.1027 452.17 90.0925C452.918 91.0272 453.667 91.9619 454.438 92.9249C455.093 93.7138 455.748 94.5026 456.422 95.3154C467.16 108.358 475.839 122.457 483.724 137.359C484.079 138.014 484.434 138.669 484.8 139.344C496.933 161.763 505.156 186.717 509.286 211.836C509.528 213.303 509.528 213.303 509.775 214.8C511.122 223.709 511.465 232.27 512 241.375C476.342 241.375 440.684 241.375 403.945 241.375C401.945 230.377 401.945 230.377 399.905 219.158C392.193 192.556 379.665 170.39 360.521 150.487C359.896 149.787 359.271 149.086 358.627 148.365C345.021 133.605 324.793 122.582 305.988 116.152C305.241 115.877 304.494 115.602 303.724 115.319C292.698 111.387 281.114 109.15 269.633 107.063C269.633 71.738 269.633 36.413 269.633 0.0175781Z" fill="black"/>
<path d="M0 269.651C35.6582 269.651 71.3164 269.651 108.055 269.651C109.055 276.316 110.055 282.981 111.085 289.848C116.944 312.633 126.748 333.644 142.391 351.45C143.092 352.272 143.794 353.095 144.517 353.943C163.013 375.156 187.829 390.87 214.911 398.598C215.58 398.79 216.248 398.982 216.936 399.18C225.008 401.355 233.05 402.497 241.357 403.963C241.357 439.287 241.357 474.612 241.357 511.008C232.137 511.008 224.1 510.879 215.173 509.338C212.856 508.951 210.534 508.614 208.209 508.274C162.227 501.168 117.319 477.85 83.5542 445.959C80.9372 443.487 78.2581 441.111 75.5503 438.74C32.2135 399.675 3.12597 336.756 0 278.74C0 275.74 0 272.741 0 269.651Z" fill="black"/>
<path d="M241.357 0.0176807C241.357 35.3427 241.357 70.6676 241.357 107.063C235.025 108.396 228.693 109.729 222.17 111.102C195.021 117.337 173.168 130.058 152.489 148.467C151.777 149.094 151.065 149.72 150.331 150.365C124.248 174.808 113.788 206.98 108.055 241.375C72.397 241.375 36.7388 241.375 0 241.375C0 232.508 0.230429 224.72 1.70414 216.128C1.88818 215.036 2.07222 213.945 2.26183 212.82C10.7783 163.704 32.4411 119.084 66.2761 82.4161C68.3079 80.1935 70.2644 77.9325 72.2051 75.6311C76.3628 70.8629 81.0557 66.757 85.8383 62.6291C86.7417 61.8389 87.6451 61.0488 88.5759 60.2346C101.476 49.1905 115.492 39.6604 130.272 31.3234C131.379 30.6856 131.379 30.6856 132.507 30.0349C160.39 14.0811 190.855 5.05945 222.544 0.723795C223.543 0.586702 224.542 0.449609 225.572 0.308361C230.818 -0.10751 236.094 0.0176807 241.357 0.0176807Z" fill="black"/>
<path d="M375.669 269.651C375.872 275.506 375.319 280.437 373.712 286.061C373.492 286.835 373.273 287.609 373.047 288.406C363.549 320.152 342.994 346.446 314.075 362.677C305.632 367.206 296.935 370.473 287.748 373.161C286.432 373.549 286.432 373.549 285.09 373.943C279.772 375.404 275.145 375.941 269.633 375.686C268.507 348.524 279.764 323.907 297.341 303.797C314.866 284.935 339.046 271.411 365.112 269.733C368.638 269.616 372.142 269.584 375.669 269.651Z" fill="black"/>
<path d="M241.357 135.339C242.908 160.327 233.464 185.343 217.247 204.326C198.512 225.536 173.777 239.34 145.308 241.54C141.967 241.679 138.656 241.623 135.322 241.375C137.409 212.157 152.904 183.9 174.706 164.625C191.734 150.297 210.545 141.218 232.269 136.349C232.985 136.147 233.7 135.946 234.438 135.738C236.772 135.24 238.978 135.273 241.357 135.339Z" fill="black"/>
<path d="M135.322 269.651C159.294 268.126 185.156 277.64 203.235 293.351C204.61 294.616 204.61 294.616 206.012 295.907C206.541 296.388 207.069 296.868 207.614 297.363C222.965 311.453 233.711 329.299 239.338 349.43C239.565 350.232 239.793 351.034 240.028 351.86C241.922 359.698 241.536 367.68 241.357 375.686C235.646 375.937 230.768 375.088 225.263 373.603C224.425 373.378 223.587 373.152 222.723 372.92C193.304 364.658 166.707 344.787 151.369 318.202C143.438 303.784 135.322 286.378 135.322 269.651Z" fill="black"/>
<path d="M269.633 135.339C295.946 136.613 320.706 149.533 339.313 167.655C340.226 168.505 341.139 169.355 342.079 170.231C349.01 176.855 354.432 183.803 359.511 191.892C359.993 192.638 360.474 193.384 360.971 194.153C364.799 200.256 367.495 206.37 369.862 213.162C370.373 214.569 370.373 214.569 370.895 216.004C373.933 224.525 375.998 232.3 375.668 241.375C350.284 242.695 325.568 232.919 306.446 216.373C305.628 215.626 304.811 214.878 303.968 214.109C303.172 213.382 302.375 212.656 301.554 211.907C283.026 194.198 270.768 168.688 269.455 142.969C269.446 140.415 269.487 137.888 269.633 135.339Z" fill="black"/>
</svg>
